<svg width="0" height="0" class="hidden">
  <symbol fill="none" xmlns="http://www.w3.org/2000/svg" viewBox="0 0 70 70" id="icon-astronaut">
    <path d="M69.9433 9.89637C69.8056 9.47513 69.4416 9.16724 69.0018 9.10298L64.8228 8.49512L62.9526 4.70809C62.5606 3.91005 61.2527 3.91005 60.8608 4.70809L58.9906 8.49512L54.8114 9.10312C54.3716 9.16724 54.0076 9.47418 53.8687 9.89651C53.7323 10.3188 53.8453 10.7831 54.1639 11.0924L57.1891 14.0407L56.4752 18.2034C56.4005 18.6409 56.5802 19.0831 56.9384 19.3445C57.3012 19.6082 57.7748 19.6407 58.168 19.4331L61.9061 17.4672L65.6442 19.4331C65.8146 19.5229 66.0024 19.5672 66.1879 19.5672C66.4294 19.5672 66.671 19.4925 66.874 19.3443C67.2333 19.0831 67.413 18.6408 67.3372 18.2033L66.6233 14.0405L69.6485 11.0923C69.9654 10.7819 70.0798 10.3187 69.9433 9.89637ZM64.5556 12.7991C64.2815 13.0662 64.1555 13.4536 64.2208 13.8316L64.6385 16.2688L62.4499 15.1184C62.2795 15.0286 62.0929 14.9843 61.9061 14.9843C61.7195 14.9843 61.534 15.0286 61.3624 15.1184L59.1736 16.2688L59.5913 13.8316C59.6567 13.4536 59.5306 13.0675 59.2565 12.7991L57.4843 11.0724L59.932 10.7166C60.3124 10.6617 60.6402 10.4226 60.8106 10.0783L61.9049 7.86169L62.9992 10.0783C63.1696 10.4225 63.4974 10.6617 63.8778 10.7166L66.3255 11.0724L64.5556 12.7991Z" fill="#2196F3"></path>
    <path d="M57.167 44.8923H54.8336V47.2257H57.167V44.8923Z" fill="#2196F3"></path>
    <path d="M57.167 49.5591H54.8336V51.8925H57.167V49.5591Z" fill="#2196F3"></path>
    <path d="M59.5004 47.2257H57.167V49.5591H59.5004V47.2257Z" fill="#2196F3"></path>
    <path d="M54.8337 47.2257H52.5003V49.5591H54.8337V47.2257Z" fill="#2196F3"></path>
    <path d="M49.0002 57.7259H46.6668V60.0593H49.0002V57.7259Z" fill="#2196F3"></path>
    <path d="M49.0002 62.3926H46.6668V64.726H49.0002V62.3926Z" fill="#2196F3"></path>
    <path d="M51.3337 60.0593H49.0002V62.3927H51.3337V60.0593Z" fill="#2196F3"></path>
    <path d="M46.6668 60.0593H44.3334V62.3927H46.6668V60.0593Z" fill="#2196F3"></path>
    <path d="M35 53.0592H32.6666V55.3926H35V53.0592Z" fill="#2196F3"></path>
    <path d="M35 57.7259H32.6666V60.0593H35V57.7259Z" fill="#2196F3"></path>
    <path d="M37.3334 55.3925H35V57.7259H37.3334V55.3925Z" fill="#2196F3"></path>
    <path d="M32.6666 55.3925H30.3332V57.7259H32.6666V55.3925Z" fill="#2196F3"></path>
    <path d="M12.833 13.3918H10.4996V15.7252H12.833V13.3918Z" fill="#2196F3"></path>
    <path d="M12.833 18.0587H10.4996V20.3921H12.833V18.0587Z" fill="#2196F3"></path>
    <path d="M15.1663 15.7252H12.8329V18.0586H15.1663V15.7252Z" fill="#2196F3"></path>
    <path d="M10.4996 15.7252H8.1662V18.0586H10.4996V15.7252Z" fill="#2196F3"></path>
    <path d="M54.0635 30.9738C53.4348 30.1256 52.5119 29.5797 51.4642 29.4326C50.4119 29.2833 49.3735 29.5597 48.5335 30.2026L45.7952 32.3014L45.794 32.3026L41.6429 35.4025L38.6725 34.2194C43.9692 31.8429 47.6712 26.545 47.6712 20.3942C47.6712 12.0314 40.8402 5.22736 32.4436 5.22736C24.047 5.22736 17.2162 12.0314 17.2162 20.3942C17.2162 23.4253 18.1226 26.2439 19.6662 28.6158L13.6204 28.5633C13.6169 28.5633 13.6134 28.5633 13.6099 28.5633C13.5912 28.5633 13.5761 28.5726 13.5586 28.5738C13.4431 28.5785 13.3299 28.6018 13.2191 28.6415C13.1911 28.652 13.162 28.6579 13.1352 28.6706C13.1212 28.6765 13.1072 28.6776 13.0932 28.6846L6.02078 32.1764C6.01955 32.1764 6.01846 32.1764 6.01846 32.1775L1.87663 34.1693C1.8311 34.1891 1.78448 34.2159 1.73895 34.2462C0.0880496 35.3452 -0.474284 37.5036 0.429989 39.2676C0.911793 40.2056 1.73198 40.8963 2.74003 41.2124C3.12859 41.3337 3.52521 41.3933 3.91952 41.3933C4.55308 41.3933 5.18077 41.2381 5.75582 40.9313L8.79157 39.3167L13.7441 36.7593L16.7122 36.7418L4.80848 48.5884C4.80738 48.5896 4.80615 48.5896 4.80492 48.5907L1.8765 51.5074C1.18469 52.1958 0.80433 53.1092 0.80433 54.0835C0.80433 55.0565 1.18469 55.9723 1.8765 56.6619C2.58703 57.3689 3.52152 57.7235 4.45601 57.7235C5.39173 57.7235 6.32498 57.3689 7.03785 56.6619L9.91254 53.7988L13.7206 50.9556L15.6912 52.9179L11.8376 56.7551C11.8365 56.7564 11.8352 56.7564 11.834 56.7575L8.90559 59.6741C8.21378 60.3625 7.83343 61.2759 7.83343 62.2502C7.83343 63.2233 8.21378 64.139 8.90559 64.8286C9.61613 65.5356 10.5518 65.8903 11.4863 65.8903C12.4208 65.8903 13.3565 65.5356 14.0682 64.8286L16.9977 61.912L21.6842 57.2453C21.6854 57.244 21.6854 57.2429 21.6865 57.2417L23.8951 55.0542L23.8869 55.046C23.9009 55.032 23.9207 55.0272 23.9348 55.0122L35.2353 42.6349L42.8281 43.7152C42.8829 43.7234 42.9377 43.7269 42.9926 43.7269C43.1338 43.7269 43.2703 43.6931 43.4021 43.6429C43.4406 43.629 43.4744 43.6102 43.5106 43.5916C43.5526 43.5706 43.5969 43.559 43.6367 43.5322L50.6659 38.8655C50.6916 38.848 50.7056 38.8199 50.73 38.8013C50.758 38.7792 50.7931 38.7699 50.8186 38.7453L53.5999 36.1401C55.0471 34.7841 55.2466 32.5628 54.0635 30.9738ZM4.66027 38.8722C4.28114 39.0752 3.85061 39.1159 3.43881 38.9854C3.03042 38.8582 2.69915 38.5793 2.50541 38.2025C2.15308 37.5164 2.35721 36.6811 2.97436 36.2296L5.84796 34.8471L6.53977 36.8689L6.8303 37.7182L4.66027 38.8722ZM12.3102 34.874L8.92336 36.6241L8.36459 34.9907L7.96331 33.8169L12.3968 31.6282L12.3102 34.874ZM45.3402 20.3919C45.3402 22.4009 44.8607 24.2957 44.03 25.9907L34.8832 21.8362C34.7875 20.5821 34.1366 19.4842 33.1589 18.8005L36.3615 8.16849C41.5626 9.82295 45.3402 14.6752 45.3402 20.3919ZM19.5519 20.3919C19.5519 13.3159 25.3363 7.55831 32.4461 7.55831C32.9991 7.55831 33.5404 7.60493 34.0759 7.67261L30.9434 18.0713C30.9014 18.0701 30.8617 18.0585 30.8185 18.0585C28.5598 18.0585 26.7222 19.8901 26.7222 22.1419C26.7222 24.3936 28.5598 26.2254 30.8185 26.2254C32.3375 26.2254 33.65 25.3866 34.3582 24.1591L42.8073 27.9975C40.4564 31.1615 36.6938 33.2255 32.4459 33.2255C25.3363 33.2255 19.5519 27.4679 19.5519 20.3919ZM32.5814 22.1419C32.5814 23.1068 31.7903 23.8919 30.8185 23.8919C29.8467 23.8919 29.0557 23.1068 29.0557 22.1419C29.0557 21.1771 29.8467 20.3919 30.8185 20.3919C31.7903 20.3919 32.5814 21.1771 32.5814 22.1419ZM5.39186 55.0074C4.87506 55.5196 4.03846 55.5185 3.52289 55.0087C3.27433 54.7601 3.13788 54.4324 3.13788 54.0835C3.13788 53.7358 3.27433 53.4079 3.52289 53.1618L5.62743 51.0652L7.48944 52.9191L5.39186 55.0074ZM12.4222 63.1743C11.9054 63.6865 11.0677 63.6877 10.552 63.1755C10.3034 62.927 10.167 62.5993 10.167 62.2503C10.167 61.9027 10.3034 61.5748 10.552 61.3287L12.6579 59.231L13.5388 60.1073L14.5211 61.0849L12.4222 63.1743ZM20.0384 55.5862C20.0371 55.5873 20.036 55.5873 20.0348 55.5885L16.1742 59.4385L15.2933 58.5623L14.311 57.5846L18.168 53.7451C18.168 53.7451 18.168 53.7451 18.168 53.744C18.1693 53.7428 18.1703 53.7428 18.1716 53.7417C18.2591 53.6542 18.3139 53.5492 18.3676 53.4454C18.3828 53.415 18.4119 53.3893 18.4248 53.3579C18.461 53.2681 18.4668 53.1713 18.4808 53.0767C18.4878 53.0229 18.5112 52.9729 18.5112 52.9179C18.5112 52.8397 18.4832 52.764 18.4669 52.6869C18.4529 52.6169 18.4529 52.5456 18.426 52.4781C18.3817 52.3684 18.3058 52.2716 18.2265 52.177C18.2044 52.1513 18.1962 52.1186 18.1717 52.0942C18.1717 52.0942 18.1717 52.0942 18.1705 52.0942C18.1693 52.0931 18.1693 52.0906 18.1682 52.0895L14.6529 48.5895C14.6156 48.5521 14.5678 48.537 14.5258 48.5055C14.464 48.4577 14.4045 48.4134 14.3356 48.3795C14.2692 48.3468 14.2015 48.327 14.1315 48.3082C14.0568 48.2872 13.9845 48.2709 13.9063 48.265C13.8351 48.2604 13.7686 48.2674 13.6975 48.2756C13.6193 48.2849 13.5459 48.2954 13.47 48.3199C13.3965 48.3432 13.3312 48.3793 13.2636 48.4179C13.2204 48.4424 13.1714 48.4506 13.1305 48.4809L9.25136 51.3767L7.2808 49.4143L12.5286 44.1946L22.0674 53.576L20.0384 55.5862ZM34.9545 40.2372C34.9207 40.2325 34.8891 40.2454 34.8554 40.2431C34.7702 40.2384 34.6886 40.2443 34.6034 40.2582C34.5369 40.2699 34.4739 40.2827 34.4109 40.3049C34.3362 40.3306 34.2686 40.3656 34.1996 40.4075C34.1343 40.4472 34.0748 40.4892 34.0177 40.5417C33.9896 40.5661 33.9559 40.5779 33.9302 40.6058L23.6527 51.862L14.1851 42.5506L20.3825 36.3859C20.8387 35.9309 20.8411 35.1923 20.386 34.735C20.1562 34.5052 19.8541 34.392 19.5519 34.3932V34.3921L14.6985 34.4212L14.7592 30.9049L21.5493 30.9633C24.3166 33.7937 28.176 35.5589 32.4461 35.5589C33.4027 35.5589 34.3361 35.4598 35.2449 35.2905C35.3324 35.3605 35.4186 35.4317 35.5284 35.476L40.7996 37.5761L41.1332 39.235L41.5228 41.1717L34.9545 40.2372ZM43.7944 40.6269L43.1096 37.2189L46.2736 34.8564L47.102 35.9554L48.3445 37.605L43.7944 40.6269ZM52.0055 34.4341L50.1726 36.1514L48.1356 33.4471L49.9544 32.0529C50.2939 31.7917 50.7221 31.6854 51.1421 31.7403C51.5644 31.7997 51.9378 32.0203 52.1921 32.3621C52.6659 33.0003 52.5853 33.8905 52.0055 34.4341Z" fill="#212121"></path>
    <path d="M29.7545 40.5651L25.0668 35.8984C24.613 35.4446 23.8755 35.4446 23.4205 35.8984L18.734 40.5651C18.5147 40.7856 18.391 41.0819 18.391 41.3922C18.391 41.7026 18.5135 42.0001 18.734 42.2194L23.4205 46.8861C23.648 47.1124 23.9468 47.2256 24.2443 47.2256C24.5418 47.2256 24.8404 47.1124 25.0668 46.8861L29.7545 42.2194C29.9738 42.0001 30.0987 41.7026 30.0987 41.3922C30.0987 41.0819 29.9749 40.7844 29.7545 40.5651ZM24.2443 44.4128L21.2109 41.3922L24.2443 38.3717L27.2788 41.3922L24.2443 44.4128Z" fill="#212121"></path>
    <path d="M37.5468 11.0923L36.9833 13.358C37.1385 13.3966 40.7844 14.3462 40.7844 18.0586H43.1178C43.1177 13.6461 39.4742 11.5718 37.5468 11.0923Z" fill="#212121"></path>
    <path d="M43.1178 20.3919H40.7844V22.7253H43.1178V20.3919Z" fill="#212121"></path>
  </symbol>
  <symbol fill="none" xmlns="http://www.w3.org/2000/svg" viewBox="0 0 70 70" id="icon-clock">
    <g clip-path="url(#clip0_3334_51)">
      <path d="M68.4614 33.4715C68.4576 14.9819 53.4656 -0.00373771 34.9754 6.99302e-07C16.4858 0.00373911 1.50017 14.9963 1.50391 33.4859C1.50711 48.0502 10.9252 60.9413 24.7995 65.3713C24.9319 65.413 25.0697 65.4343 25.2081 65.4338C25.4719 65.4333 25.7304 65.3628 25.9573 65.2287C26.2527 65.0541 26.4732 64.7764 26.5768 64.449L35.0315 37.6521C37.3429 37.6404 39.2068 35.7568 39.1945 33.4459C39.1827 31.1345 37.2997 29.2706 34.9883 29.2824C34.3666 29.285 33.753 29.4282 33.1944 29.7011L22.0251 18.5302C21.4707 17.9951 20.5879 18.0106 20.0528 18.5644C19.5305 19.1054 19.5305 19.962 20.0528 20.503L31.2162 31.6792C30.3596 33.4277 30.8493 35.5383 32.3895 36.7303L24.3338 62.2647C8.41354 56.4002 0.261689 38.7405 6.12618 22.8203C11.9907 6.90002 29.6503 -1.25183 45.5706 4.61266C61.4909 10.4771 69.6427 28.1374 63.7782 44.0571C60.913 51.8351 55.0261 58.1252 47.4548 61.4989L46.5842 57.3989C46.4251 56.6454 45.6844 56.1636 44.9308 56.3233C44.6931 56.3741 44.4726 56.4857 44.291 56.6475L35.8978 64.1409C35.322 64.653 35.2708 65.5347 35.7835 66.1105C35.9501 66.2974 36.1637 66.4362 36.403 66.5126L47.1188 69.9327C47.8521 70.1682 48.6377 69.765 48.8732 69.0312C48.948 68.7994 48.9603 68.5527 48.9101 68.3145L48.0545 64.2915C60.4452 59.0678 68.4902 46.918 68.4614 33.4715ZM34.9829 32.0766C35.753 32.0766 36.3779 32.7014 36.3779 33.4715C36.3779 34.2422 35.753 34.8665 34.9829 34.8665C34.2123 34.8665 33.588 34.2422 33.588 33.4715C33.588 32.7014 34.2123 32.0766 34.9829 32.0766ZM39.5774 64.5916L44.3551 60.3298L45.6737 66.543L39.5774 64.5916Z" fill="#212121"></path>
      <path d="M33.5879 6.96729V9.7572C33.5879 10.5278 34.2122 11.1522 34.9828 11.1522C35.753 11.1522 36.3778 10.5278 36.3778 9.7572V6.96729C36.3778 6.19717 35.753 5.57233 34.9828 5.57233C34.2122 5.57233 33.5879 6.19717 33.5879 6.96729Z" fill="#2196F3"></path>
      <path d="M8.4787 32.0765C7.70805 32.0765 7.08374 32.7014 7.08374 33.4715C7.08374 34.2421 7.70805 34.8665 8.4787 34.8665H11.2686C12.0393 34.8665 12.6636 34.2421 12.6636 33.4715C12.6636 32.7014 12.0393 32.0765 11.2686 32.0765H8.4787Z" fill="#2196F3"></path>
      <path d="M61.4865 34.8665C62.2572 34.8665 62.8815 34.2421 62.8815 33.4715C62.8815 32.7014 62.2572 32.0765 61.4865 32.0765H58.6966C57.9265 32.0765 57.3016 32.7014 57.3016 33.4715C57.3016 34.2421 57.9265 34.8665 58.6966 34.8665H61.4865Z" fill="#2196F3"></path>
    </g>
    <defs>
      <clipPath id="clip0_3334_51">
        <rect width="70" height="70" fill="white"></rect>
      </clipPath>
    </defs>
  </symbol>
  <symbol fill="none" xmlns="http://www.w3.org/2000/svg" viewBox="0 0 70 70" id="icon-diagram">
    <g clip-path="url(#clip0_3334_61)">
      <path d="M32.6496 32.7351H34.9817V43.2296H32.6496V32.7351Z" fill="#2196F3"></path>
      <path d="M41.978 37.3993H44.3101V43.2296H41.978V37.3993Z" fill="#2196F3"></path>
      <path d="M23.3211 40.8975H25.6532V43.2296H23.3211V40.8975Z" fill="#2196F3"></path>
      <path d="M16.3248 39.7314H18.6569V43.2295H16.3248V39.7314Z" fill="#2196F3"></path>
      <path d="M3.49817 61.8865H59.4689C61.4007 61.8865 62.967 60.3202 62.967 58.3883V53.7241C62.967 51.7923 61.4007 50.2259 59.4689 50.2259H58.3028V21.1469L64.9262 14.8725C66.4635 15.6303 68.3242 15.1702 69.3302 13.7816C70.3369 12.3935 70.1957 10.4821 68.9966 9.25684C67.7975 8.03157 65.8901 7.8488 64.4798 8.82412C63.0701 9.80001 62.569 11.6499 63.2933 13.2037L58.3028 17.9345V15.2443C58.3028 13.3124 56.7365 11.7461 54.8046 11.7461H8.16239C6.23054 11.7461 4.66422 13.3124 4.66422 15.2443V50.2259H3.49817C1.56632 50.2259 0 51.7923 0 53.7241V58.3883C0 60.3202 1.56632 61.8865 3.49817 61.8865ZM66.4652 10.58C67.1091 10.58 67.6312 11.1021 67.6312 11.7461C67.6312 12.39 67.1091 12.9121 66.4652 12.9121C65.8212 12.9121 65.2991 12.39 65.2991 11.7461C65.2991 11.1021 65.8212 10.58 66.4652 10.58ZM6.99634 15.2443C6.99634 14.6003 7.51844 14.0782 8.16239 14.0782H54.8046C55.4486 14.0782 55.9707 14.6003 55.9707 15.2443V20.1414L53.6386 22.3573V17.5764C53.6386 16.9324 53.1165 16.4103 52.4725 16.4103H10.4945C9.85055 16.4103 9.32845 16.9324 9.32845 17.5764V46.7278C9.32845 47.3717 9.85055 47.8938 10.4945 47.8938H52.4725C53.1165 47.8938 53.6386 47.3717 53.6386 46.7278V25.5651L55.9707 23.3554V50.2259H6.99634V15.2443ZM17.4908 30.403C15.9131 30.3984 14.5279 31.4495 14.1083 32.9703C13.6886 34.491 14.3383 36.104 15.6951 36.9091C17.0513 37.7142 18.7793 37.5121 19.9129 36.4149L23.9662 38.4487C24.4371 38.6844 25.0081 38.5739 25.3583 38.1805L33.9745 28.4871L42.4443 34.8338C42.8987 35.1743 43.5329 35.1378 43.9452 34.7478L51.3065 27.7748V45.5617H11.6606V18.7424H51.3065V24.5619L43.0564 32.3747L34.5154 25.9716C34.0303 25.6084 33.3476 25.6767 32.9445 26.1294L24.2099 35.9571L20.9446 34.3242C20.9685 34.1841 20.9833 34.0429 20.989 33.9012C20.989 31.9693 19.4227 30.403 17.4908 30.403ZM18.6569 33.9012C18.6569 34.5451 18.1348 35.0672 17.4908 35.0672C16.8469 35.0672 16.3248 34.5451 16.3248 33.9012C16.3248 33.2572 16.8469 32.7351 17.4908 32.7351C18.1348 32.7351 18.6569 33.2572 18.6569 33.9012ZM25.6532 52.5581H37.3138V53.7241C37.3138 54.3681 36.7917 54.8902 36.1477 54.8902H26.8193C26.1753 54.8902 25.6532 54.3681 25.6532 53.7241V52.5581ZM2.33211 53.7241C2.33211 53.0802 2.85422 52.5581 3.49817 52.5581H23.3211V53.7241C23.3211 55.656 24.8874 57.2223 26.8193 57.2223H36.1477C38.0796 57.2223 39.6459 55.656 39.6459 53.7241V52.5581H59.4689C60.1128 52.5581 60.6349 53.0802 60.6349 53.7241V58.3883C60.6349 59.0323 60.1128 59.5544 59.4689 59.5544H3.49817C2.85422 59.5544 2.33211 59.0323 2.33211 58.3883V53.7241Z" fill="#212121"></path>
    </g>
    <defs>
      <clipPath id="clip0_3334_61">
        <rect width="70" height="70" fill="white"></rect>
      </clipPath>
    </defs>
  </symbol>
  <symbol fill="none" xmlns="http://www.w3.org/2000/svg" viewBox="0 0 16 12" id="icon-envelope">
    <path d="M14.5 0H1.50001C0.672854 0 0 0.672853 0 1.50001V10.5C0 11.3271 0.672854 12 1.50001 12H14.5C15.3271 12 16 11.3271 16 10.5V1.50001C16 0.672853 15.3271 0 14.5 0ZM14.5 0.999994C14.5679 0.999994 14.6325 1.01409 14.6916 1.0387L8 6.83838L1.30833 1.0387C1.36742 1.01412 1.43204 0.999994 1.49998 0.999994H14.5ZM14.5 11H1.50001C1.22414 11 0.999996 10.7759 0.999996 10.5V2.09521L7.67236 7.87792C7.76661 7.95944 7.8833 7.99999 8 7.99999C8.1167 7.99999 8.23339 7.95948 8.32764 7.87792L15 2.09521V10.5C15 10.7759 14.7759 11 14.5 11Z" fill="#757575" style="fill: var(--color1, #757575)"></path>
    
  </symbol>
  <symbol fill="none" xmlns="http://www.w3.org/2000/svg" viewBox="0 0 20 20" id="icon-facebook">
    <g clip-path="url(#clip0_3334_162)">
      <path d="M13.3309 3.32083H15.1567V0.140833C14.8417 0.0975 13.7584 0 12.4967 0C9.86422 0 8.06088 1.65583 8.06088 4.69917V7.5H5.15588V11.055H8.06088V20H11.6226V11.0558H14.4101L14.8526 7.50083H11.6217V5.05167C11.6226 4.02417 11.8992 3.32083 13.3309 3.32083Z" fill="#AFB1B8" style="fill: var(--color1, #AFB1B8)"></path>
    </g>
    <defs>
      <clipPath id="clip0_3334_162">
        <rect width="20" height="20" fill="white"></rect>
      </clipPath>
    </defs>
  </symbol>
  <symbol fill="none" xmlns="http://www.w3.org/2000/svg" viewBox="0 0 40 53" id="icon-group">
    <path fill-rule="evenodd" clip-rule="evenodd" d="M17.1136 3.64766H16.977C16.7671 3.63494 16.5571 3.62985 16.3471 3.62477H16.3471H16.3269H15.8918C15.4946 3.62477 15.0898 3.63494 14.6876 3.65528C14.6573 3.65308 14.6269 3.65308 14.5966 3.65528C10.9522 3.86177 7.38171 4.77265 4.08049 6.33806L3.6479 6.54658V28.6877L4.65979 28.3444C5.54773 28.0393 6.49384 27.7646 7.47285 27.5103C10.1193 26.8309 12.8367 26.4699 15.568 26.4347V29.3438C15.2062 29.3463 14.8546 29.3565 14.503 29.3743H14.4195C12.3175 29.4896 10.2317 29.8098 8.19129 30.3304C5.60716 30.9774 3.11433 31.9488 0.771606 33.2217V4.82502C3.20469 3.40588 5.82533 2.34001 8.55557 1.6591C10.9527 1.04019 13.4169 0.722442 15.8918 0.713135H16.3193C16.8303 0.725849 17.3287 0.748736 17.7967 0.784336C19.0297 0.870911 20.2528 1.06576 21.4521 1.36666V4.22998C20.2874 3.95864 19.1032 3.78009 17.9105 3.69597C17.8863 3.69392 17.8621 3.69186 17.8379 3.68979C17.5911 3.66874 17.344 3.64766 17.1136 3.64766ZM22.1528 6.57452C22.7877 6.62283 23.4455 6.64572 24.1108 6.64572C26.7125 6.63621 29.3031 6.30397 31.8239 5.65653C34.4068 5.0071 36.8986 4.03491 39.2411 2.7627V30.6533C36.8067 32.0716 34.1853 33.1375 31.4546 33.8193C29.0571 34.4358 26.5931 34.7527 24.1184 34.7627C22.2433 34.7778 20.3737 34.5574 18.553 34.1066V6.03542C18.983 6.1346 19.4257 6.22614 19.876 6.30243C20.6147 6.42703 21.3939 6.51857 22.1528 6.57452ZM36.3471 6.79067L35.3352 7.13142C34.4042 7.44419 33.4657 7.72391 32.5221 7.97312C29.7749 8.67909 26.9514 9.04123 24.1158 9.05131C23.4556 9.05131 22.8485 9.03351 22.2616 8.99537L21.4546 8.94197V29.031V31.7188L22.1477 31.7799C22.7903 31.8358 23.4531 31.8638 24.1209 31.8638C26.3544 31.8543 28.5781 31.5664 30.7412 31.0068C32.5223 30.56 34.2552 29.9374 35.9145 29.1479L36.3471 28.9394V6.79067Z" fill="#AFB1B8" style="fill: var(--color1, #AFB1B8)"></path>
    <path d="M2.73713 42.9255C2.59166 42.7746 2.41629 42.6562 2.22236 42.5777C2.02844 42.4993 1.82029 42.4627 1.61141 42.4703C1.38879 42.4674 1.16781 42.5089 0.961267 42.5924C0.771901 42.6678 0.599767 42.7812 0.455322 42.9255C0.312451 43.0703 0.201292 43.2436 0.128988 43.4341C0.0496792 43.6338 0.0101425 43.8472 0.0126205 44.0622V47.8562C0.00357283 48.1236 0.0545882 48.3895 0.161874 48.6344C0.251433 48.8288 0.380725 49.0021 0.541333 49.1429C0.692953 49.2706 0.870978 49.3627 1.06246 49.4125C1.24694 49.4643 1.43755 49.4909 1.62911 49.4913C1.84041 49.4934 2.04953 49.4483 2.24131 49.3591C2.43095 49.2761 2.60277 49.1569 2.74725 49.0082C2.88814 48.8608 3.00052 48.6883 3.07865 48.4996C3.15973 48.3083 3.20105 48.1023 3.20007 47.8944V47.4697H2.20842V47.8079C2.21137 47.9234 2.1916 48.0383 2.15024 48.1461C2.11794 48.2269 2.06877 48.2997 2.00604 48.3597C1.94461 48.4094 1.87416 48.4465 1.79861 48.4691C1.73164 48.4914 1.6617 48.5034 1.59117 48.5047C1.50263 48.515 1.41296 48.5016 1.33122 48.4659C1.24948 48.4301 1.17858 48.3734 1.1257 48.3012C1.03222 48.1488 0.986395 47.9716 0.994154 47.7927V44.2555C0.988002 44.0593 1.02969 43.8646 1.11558 43.6884C1.16706 43.6083 1.2399 43.5444 1.32578 43.5039C1.41166 43.4635 1.50713 43.4481 1.60129 43.4595C1.68676 43.4565 1.7717 43.4743 1.8488 43.5115C1.92591 43.5487 1.99289 43.6042 2.04399 43.6731C2.15496 43.8188 2.21298 43.9983 2.20842 44.1817V44.5098H3.18995V44.1232C3.19195 43.8962 3.15073 43.671 3.06853 43.4595C2.99527 43.2608 2.88251 43.0791 2.73713 42.9255Z" fill="#AFB1B8" style="fill: var(--color1, #AFB1B8)"></path>
    <path d="M8.62892 42.8822C8.31271 42.6152 7.91362 42.4677 7.50066 42.4652C7.29868 42.4661 7.09838 42.5022 6.9087 42.572C6.71613 42.641 6.53841 42.7463 6.38505 42.8822C6.22076 43.0299 6.08968 43.2111 6.00053 43.4137C5.90063 43.6455 5.85146 43.8961 5.85634 44.1486V47.7875C5.8495 48.0435 5.89873 48.2979 6.00053 48.5326C6.09028 48.7283 6.22152 48.9019 6.38505 49.0412C6.53665 49.1819 6.71468 49.2909 6.9087 49.3616C7.09838 49.4314 7.29868 49.4675 7.50066 49.4684C7.70269 49.468 7.90307 49.4319 8.09262 49.3616C8.28995 49.2899 8.47195 49.1812 8.62892 49.0412C8.7871 48.8993 8.91454 48.7261 9.00332 48.5326C9.10512 48.2979 9.15435 48.0435 9.14751 47.7875V44.1486C9.15239 43.8961 9.10322 43.6455 9.00332 43.4137C8.91505 43.2132 8.78775 43.0325 8.62892 42.8822ZM8.16598 47.7875C8.17434 47.8845 8.16095 47.9821 8.1268 48.0732C8.09265 48.1643 8.03861 48.2466 7.96866 48.3139C7.83768 48.4238 7.67251 48.4839 7.50193 48.4839C7.33135 48.4839 7.16617 48.4238 7.03519 48.3139C6.96524 48.2466 6.9112 48.1643 6.87705 48.0732C6.8429 47.9821 6.82952 47.8845 6.83787 47.7875V44.1486C6.82952 44.0516 6.8429 43.954 6.87705 43.8629C6.9112 43.7718 6.96524 43.6896 7.03519 43.6222C7.16617 43.5124 7.33135 43.4522 7.50193 43.4522C7.67251 43.4522 7.83768 43.5124 7.96866 43.6222C8.03861 43.6896 8.09265 43.7718 8.1268 43.8629C8.16095 43.954 8.17434 44.0516 8.16598 44.1486V47.7875Z" fill="#AFB1B8" style="fill: var(--color1, #AFB1B8)"></path>
    <path d="M16.3673 49.4125V42.5238H15.4136L14.1614 46.1703H14.1437L12.8813 42.5238H11.9377V49.4125H12.9218V45.2218H12.9395L13.9033 48.1843H14.3941L15.3655 45.2218H15.3832V49.4125H16.3673Z" fill="#AFB1B8" style="fill: var(--color1, #AFB1B8)"></path>
    <path d="M21.9581 43.0068C21.8065 42.8368 21.6153 42.7075 21.4015 42.6304C21.1712 42.5555 20.9302 42.5194 20.6881 42.5236H19.226V49.4124H20.2075V46.722H20.7134C21.0197 46.7359 21.3244 46.6712 21.5988 46.5338C21.822 46.4099 22.0081 46.2281 22.1377 46.0074C22.2512 45.8242 22.3277 45.6203 22.3628 45.4073C22.4014 45.1481 22.4192 44.8862 22.4159 44.6241C22.4255 44.2933 22.3932 43.9626 22.3198 43.64C22.2543 43.4016 22.1299 43.1838 21.9581 43.0068ZM21.4521 45.1072C21.4479 45.232 21.4168 45.3543 21.361 45.4658C21.3049 45.5717 21.2162 45.6565 21.1081 45.7074C20.9627 45.7724 20.8041 45.802 20.6451 45.7938H20.1974V43.4518H20.7033C20.8557 43.4443 21.0075 43.474 21.146 43.5383C21.2475 43.5965 21.3281 43.6855 21.3762 43.7926C21.4299 43.9136 21.4591 44.0441 21.4622 44.1765C21.4622 44.3215 21.4622 44.4741 21.4622 44.6343C21.4622 44.7945 21.4723 44.9598 21.4622 45.1072H21.4521Z" fill="#AFB1B8" style="fill: var(--color1, #AFB1B8)"></path>
    <path d="M26.6077 42.5238H25.8032L24.2854 49.4125H25.2669L25.5553 47.9326H26.8935L27.1819 49.4125H28.1635L26.6077 42.5238ZM25.702 46.9942L26.1852 44.4971H26.2029L26.6836 46.9942H25.702Z" fill="#AFB1B8" style="fill: var(--color1, #AFB1B8)"></path>
    <path d="M32.9497 46.6738H32.932L31.4496 42.5238H30.506V49.4125H31.4875V45.2701H31.5078L33.0079 49.4125H33.9312V42.5238H32.9497V46.6738Z" fill="#AFB1B8" style="fill: var(--color1, #AFB1B8)"></path>
    <path d="M38.9476 42.5238L38.1583 45.2625H38.1381L37.3488 42.5238H36.3091L37.6574 46.5009V49.4125H38.639V46.5009L39.9873 42.5238H38.9476Z" fill="#AFB1B8" style="fill: var(--color1, #AFB1B8)"></path>
    <path d="M0 51.3577H0.473058V52.6851H0.794333V51.3577H1.26486V51.0856H0V51.3577Z" fill="#AFB1B8"></path>
    <path d="M3.97672 51.0856L3.35693 52.6851H3.69845L3.82999 52.3214H4.46748L4.60409 52.6851H4.95319L4.31823 51.0856H3.97672ZM3.92612 52.0519L4.14368 51.4594L4.36123 52.0519H3.92612Z" fill="#AFB1B8" style="fill: var(--color1, #AFB1B8)"></path>
    <path d="M7.90793 52.0953H8.27727V52.3012C8.16941 52.3877 8.03576 52.4352 7.89781 52.436C7.8333 52.4396 7.76886 52.4277 7.70988 52.4011C7.65091 52.3746 7.59911 52.3342 7.55883 52.2834C7.47402 52.1617 7.43217 52.0149 7.43993 51.8664C7.43993 51.5104 7.59424 51.3324 7.90034 51.3324C7.98091 51.3244 8.06168 51.3456 8.12804 51.3922C8.19439 51.4389 8.24194 51.5079 8.26209 51.5867L8.57831 51.5257C8.51001 51.2129 8.28486 51.0552 7.90034 51.0552C7.69468 51.0497 7.4947 51.1234 7.34127 51.2612C7.26069 51.3408 7.19834 51.4371 7.15858 51.5433C7.11882 51.6496 7.10261 51.7633 7.11107 51.8766C7.10175 52.0954 7.17493 52.3097 7.31598 52.4767C7.39434 52.5575 7.4892 52.6202 7.59401 52.6606C7.69883 52.701 7.8111 52.7181 7.92311 52.7106C8.17338 52.7176 8.41652 52.6264 8.60108 52.4564V51.8257H7.90793V52.0953Z" fill="#AFB1B8" style="fill: var(--color1, #AFB1B8)"></path>
    <path d="M11.9226 51.0856H11.5988V52.6851H12.7194V52.413H11.9226V51.0856Z" fill="#AFB1B8" style="fill: var(--color1, #AFB1B8)"></path>
    <path d="M15.3175 51.0856H14.9937V52.6851H15.3175V51.0856Z" fill="#AFB1B8" style="fill: var(--color1, #AFB1B8)"></path>
    <path d="M18.6365 52.1536L17.9813 51.0856H17.6676V52.6851H17.9686V51.6399L18.6112 52.6851H18.9325V51.0856H18.6365V52.1536Z" fill="#AFB1B8" style="fill: var(--color1, #AFB1B8)"></path>
    <path d="M21.6368 51.9807H22.4337V51.7086H21.6368V51.3577H22.4944V51.0856H21.313V52.6851H22.5273V52.413H21.6368V51.9807Z" fill="#AFB1B8" style="fill: var(--color1, #AFB1B8)"></path>
    <path d="M28.9122 51.7162H28.2823V51.0856H27.9611V52.6851H28.2823V51.9858H28.9122V52.6851H29.2335V51.0856H28.9122V51.7162Z" fill="#AFB1B8" style="fill: var(--color1, #AFB1B8)"></path>
    <path d="M31.9302 51.9807H32.7296V51.7086H31.9302V51.3577H32.7903V51.0856H31.6089V52.6851H32.8206V52.413H31.9302V51.9807Z" fill="#AFB1B8" style="fill: var(--color1, #AFB1B8)"></path>
    <path d="M36.0233 51.9807C36.3015 51.9375 36.4432 51.79 36.4432 51.5357C36.4513 51.4677 36.441 51.3987 36.4134 51.3361C36.3858 51.2735 36.3419 51.2194 36.2863 51.1797C36.1415 51.107 35.9799 51.0745 35.8183 51.0856H35.1404V52.6851H35.4617V52.0163H35.5249C35.5934 52.0121 35.6619 52.0243 35.7247 52.0519C35.7717 52.0809 35.8108 52.1211 35.8386 52.1689L36.1877 52.6775H36.5722L36.3774 52.3647C36.2913 52.2103 36.1699 52.0787 36.0233 51.9807ZM35.6994 51.7595H35.4617V51.3577H35.7146C35.8248 51.3488 35.9357 51.3618 36.041 51.3959C36.0644 51.4165 36.0828 51.4422 36.095 51.471C36.1072 51.4998 36.1127 51.531 36.1113 51.5623C36.1098 51.5936 36.1014 51.6241 36.0866 51.6516C36.0718 51.6792 36.051 51.703 36.0258 51.7214C35.9202 51.7537 35.8096 51.7667 35.6994 51.7595Z" fill="#AFB1B8" style="fill: var(--color1, #AFB1B8)"></path>
    <path d="M39.1096 51.9807H39.9064V51.7086H39.1096V51.3577H39.9697V51.0856H38.7858V52.6851H40V52.413H39.1096V51.9807Z" fill="#AFB1B8" style="fill: var(--color1, #AFB1B8)"></path>
  </symbol>
  <symbol fill="none" xmlns="http://www.w3.org/2000/svg" viewBox="0 0 85 42" id="icon-group-2">
    <path d="M13.1462 13.1028H13.1433C10.7453 13.1028 8.80127 14.8304 8.80127 16.9615V16.964C8.80127 19.0951 10.7453 20.8227 13.1433 20.8227H13.1462C15.5442 20.8227 17.4882 19.0951 17.4882 16.964V16.9615C17.4882 14.8304 15.5442 13.1028 13.1462 13.1028Z" fill="#AFB1B8" style="fill: var(--color1, #AFB1B8)"></path>
    <path d="M45.195 11.8693C45.1882 8.90929 43.8623 6.07223 41.5074 3.97895C39.1525 1.88568 35.9604 0.706672 32.6297 0.699951V0.699951C29.298 0.705328 26.1045 1.88374 23.7484 3.97716C21.3922 6.07058 20.0655 8.90841 20.0587 11.8693V28.1921C20.0587 28.1921 45.1922 25.7044 45.195 11.8718V11.8693Z" fill="#AFB1B8" style="fill: var(--color1, #AFB1B8)"></path>
    <path d="M0 33.5495C0.00604098 35.6091 0.929149 37.5828 2.56761 39.0394C4.20607 40.496 6.42668 41.317 8.74418 41.3231C11.0612 41.317 13.2814 40.4963 14.9197 39.0403C16.5581 37.5843 17.4816 35.6112 17.4884 33.552V22.1943C17.4884 22.1943 0 23.9266 0 33.5495ZM8.74418 35.5844C8.2913 35.5844 7.84859 35.4651 7.47203 35.2415C7.09548 35.0179 6.80199 34.7001 6.62868 34.3282C6.45537 33.9564 6.41002 33.5472 6.49838 33.1525C6.58673 32.7577 6.80481 32.3951 7.12505 32.1105C7.44528 31.8259 7.85328 31.6321 8.29746 31.5536C8.74164 31.4751 9.20204 31.5154 9.62045 31.6694C10.0389 31.8234 10.3965 32.0843 10.6481 32.4189C10.8997 32.7535 11.034 33.147 11.034 33.5495C11.0351 33.8173 10.9767 34.0828 10.8622 34.3306C10.7476 34.5783 10.5791 34.8036 10.3664 34.9933C10.1536 35.1831 9.90081 35.3337 9.62244 35.4364C9.34406 35.5392 9.04561 35.5921 8.74418 35.5921V35.5844Z" fill="#AFB1B8" style="fill: var(--color1, #AFB1B8)"></path>
    <path d="M26.4177 34.4637H24.7302V36.2069H23.8513V31.9413H26.6286V32.6532H24.7302V33.7548H26.4177V34.4637ZM30.6423 34.1708C30.6423 34.5907 30.5681 34.9589 30.4196 35.2753C30.2712 35.5917 30.0583 35.8358 29.7809 36.0077C29.5056 36.1796 29.1891 36.2655 28.8317 36.2655C28.4782 36.2655 28.1628 36.1805 27.8854 36.0106C27.6081 35.8407 27.3932 35.5985 27.2409 35.2841C27.0886 34.9677 27.0114 34.6044 27.0095 34.1942V33.9833C27.0095 33.5634 27.0847 33.1942 27.235 32.8759C27.3874 32.5555 27.6013 32.3104 27.8766 32.1405C28.154 31.9686 28.4704 31.8827 28.8259 31.8827C29.1813 31.8827 29.4968 31.9686 29.7722 32.1405C30.0495 32.3104 30.2634 32.5555 30.4138 32.8759C30.5661 33.1942 30.6423 33.5624 30.6423 33.9803V34.1708ZM29.7516 33.9774C29.7516 33.5302 29.6716 33.1903 29.5114 32.9579C29.3513 32.7255 29.1227 32.6093 28.8259 32.6093C28.5309 32.6093 28.3034 32.7245 28.1432 32.955C27.9831 33.1835 27.902 33.5194 27.9001 33.9628V34.1708C27.9001 34.6063 27.9802 34.9442 28.1403 35.1844C28.3005 35.4247 28.5309 35.5448 28.8317 35.5448C29.1266 35.5448 29.3532 35.4296 29.5114 35.1991C29.6696 34.9667 29.7497 34.6288 29.7516 34.1854V33.9774ZM33.4929 35.0878C33.4929 34.9218 33.4343 34.7948 33.3171 34.7069C33.1999 34.6171 32.989 34.5233 32.6843 34.4257C32.3796 34.326 32.1384 34.2284 31.9606 34.1327C31.4763 33.871 31.2341 33.5184 31.2341 33.0751C31.2341 32.8446 31.2985 32.6395 31.4274 32.4598C31.5583 32.2782 31.7448 32.1366 31.987 32.035C32.2311 31.9335 32.5046 31.8827 32.8073 31.8827C33.112 31.8827 33.3835 31.9384 33.6218 32.0497C33.86 32.1591 34.0446 32.3143 34.1755 32.5155C34.3083 32.7167 34.3747 32.9452 34.3747 33.201H33.4958C33.4958 33.0057 33.4343 32.8544 33.3112 32.7469C33.1882 32.6376 33.0153 32.5829 32.7927 32.5829C32.5778 32.5829 32.4108 32.6288 32.2917 32.7206C32.1725 32.8104 32.113 32.9296 32.113 33.078C32.113 33.2167 32.1823 33.3329 32.321 33.4266C32.4616 33.5204 32.6677 33.6083 32.9391 33.6903C33.4391 33.8407 33.8034 34.0272 34.0319 34.2499C34.2604 34.4725 34.3747 34.7499 34.3747 35.0819C34.3747 35.451 34.235 35.7411 33.9557 35.952C33.6765 36.161 33.3005 36.2655 32.8278 36.2655C32.4997 36.2655 32.2009 36.2059 31.9313 36.0868C31.6618 35.9657 31.4557 35.8007 31.3132 35.5917C31.1725 35.3827 31.1022 35.1405 31.1022 34.8651H31.9841C31.9841 35.3358 32.2653 35.5712 32.8278 35.5712C33.0368 35.5712 33.1999 35.5292 33.3171 35.4452C33.4343 35.3593 33.4929 35.2401 33.4929 35.0878ZM38.1833 32.6532H36.8766V36.2069H35.9977V32.6532H34.7087V31.9413H38.1833V32.6532ZM41.2536 34.3583H39.5661V35.5009H41.5466V36.2069H38.6872V31.9413H41.5407V32.6532H39.5661V33.6698H41.2536V34.3583ZM43.6413 34.6454H42.9411V36.2069H42.0622V31.9413H43.6472C44.1511 31.9413 44.5397 32.0536 44.8132 32.2782C45.0866 32.5028 45.2233 32.8202 45.2233 33.2303C45.2233 33.5214 45.1599 33.7645 45.0329 33.9598C44.9079 34.1532 44.7175 34.3075 44.4616 34.4227L45.3845 36.1659V36.2069H44.4411L43.6413 34.6454ZM42.9411 33.9335H43.6501C43.8708 33.9335 44.0417 33.8778 44.1628 33.7665C44.2839 33.6532 44.3444 33.4979 44.3444 33.3007C44.3444 33.0995 44.2868 32.9413 44.1716 32.826C44.0583 32.7108 43.8835 32.6532 43.6472 32.6532H42.9411V33.9335ZM48.2673 34.704V36.2069H47.3884V31.9413H49.0524C49.3727 31.9413 49.654 31.9999 49.8962 32.1171C50.1403 32.2343 50.3278 32.4012 50.4587 32.618C50.5895 32.8329 50.655 33.078 50.655 33.3534C50.655 33.7714 50.5114 34.1014 50.2243 34.3436C49.9391 34.5839 49.5436 34.704 49.0378 34.704H48.2673ZM48.2673 33.9921H49.0524C49.2849 33.9921 49.4616 33.9374 49.5827 33.828C49.7057 33.7186 49.7673 33.5624 49.7673 33.3593C49.7673 33.1503 49.7057 32.9813 49.5827 32.8524C49.4597 32.7235 49.2897 32.6571 49.0729 32.6532H48.2673V33.9921ZM53.8278 34.3583H52.1403V35.5009H54.1208V36.2069H51.2614V31.9413H54.1149V32.6532H52.1403V33.6698H53.8278V34.3583ZM57.9059 32.6532H56.5993V36.2069H55.7204V32.6532H54.4313V31.9413H57.9059V32.6532ZM60.9763 34.3583H59.2888V35.5009H61.2692V36.2069H58.4099V31.9413H61.2634V32.6532H59.2888V33.6698H60.9763V34.3583ZM63.364 34.6454H62.6638V36.2069H61.7849V31.9413H63.3698C63.8737 31.9413 64.2624 32.0536 64.5358 32.2782C64.8093 32.5028 64.946 32.8202 64.946 33.2303C64.946 33.5214 64.8825 33.7645 64.7556 33.9598C64.6306 34.1532 64.4401 34.3075 64.1843 34.4227L65.1071 36.1659V36.2069H64.1638L63.364 34.6454ZM62.6638 33.9335H63.3727C63.5934 33.9335 63.7643 33.8778 63.8854 33.7665C64.0065 33.6532 64.0671 33.4979 64.0671 33.3007C64.0671 33.0995 64.0095 32.9413 63.8942 32.826C63.7809 32.7108 63.6061 32.6532 63.3698 32.6532H62.6638V33.9335ZM67.8288 35.0878C67.8288 34.9218 67.7702 34.7948 67.653 34.7069C67.5358 34.6171 67.3249 34.5233 67.0202 34.4257C66.7155 34.326 66.4743 34.2284 66.2966 34.1327C65.8122 33.871 65.57 33.5184 65.57 33.0751C65.57 32.8446 65.6345 32.6395 65.7634 32.4598C65.8942 32.2782 66.0807 32.1366 66.3229 32.035C66.5671 31.9335 66.8405 31.8827 67.1432 31.8827C67.4479 31.8827 67.7194 31.9384 67.9577 32.0497C68.196 32.1591 68.3806 32.3143 68.5114 32.5155C68.6442 32.7167 68.7106 32.9452 68.7106 33.201H67.8317C67.8317 33.0057 67.7702 32.8544 67.6472 32.7469C67.5241 32.6376 67.3513 32.5829 67.1286 32.5829C66.9138 32.5829 66.7468 32.6288 66.6276 32.7206C66.5085 32.8104 66.4489 32.9296 66.4489 33.078C66.4489 33.2167 66.5182 33.3329 66.6569 33.4266C66.7975 33.5204 67.0036 33.6083 67.2751 33.6903C67.7751 33.8407 68.1393 34.0272 68.3679 34.2499C68.5964 34.4725 68.7106 34.7499 68.7106 35.0819C68.7106 35.451 68.571 35.7411 68.2917 35.952C68.0124 36.161 67.6364 36.2655 67.1638 36.2655C66.8356 36.2655 66.5368 36.2059 66.2673 36.0868C65.9977 35.9657 65.7917 35.8007 65.6491 35.5917C65.5085 35.3827 65.4382 35.1405 65.4382 34.8651H66.32C66.32 35.3358 66.6013 35.5712 67.1638 35.5712C67.3727 35.5712 67.5358 35.5292 67.653 35.4452C67.7702 35.3593 67.8288 35.2401 67.8288 35.0878Z" fill="#AFB1B8" style="fill: var(--color1, #AFB1B8)"></path>
  </symbol>
  <symbol fill="none" xmlns="http://www.w3.org/2000/svg" viewBox="0 0 63 47" id="icon-group-3">
    <path d="M4.7569 38.7352C5.00058 39.0114 5.13038 39.3572 5.12358 39.7122C5.13601 39.9437 5.0914 40.1749 4.99304 40.3885C4.89469 40.6021 4.74511 40.7927 4.55539 40.9463C4.08201 41.2736 3.49555 41.4336 2.90369 41.3969H0V35.2055H2.84423C3.40566 35.1713 3.96263 35.3167 4.41995 35.6168C4.60363 35.7576 4.74908 35.9355 4.84482 36.1365C4.94055 36.3376 4.98396 36.5562 4.97162 36.7753C4.98831 37.1168 4.87115 37.4526 4.64128 37.722C4.42059 37.968 4.1156 38.1385 3.77579 38.2059C4.16101 38.2703 4.50873 38.4579 4.7569 38.7352ZM1.35109 37.8006H2.56674C2.84303 37.8193 3.11743 37.7463 3.33974 37.5949C3.43101 37.5192 3.50203 37.4252 3.54728 37.3203C3.59254 37.2154 3.61082 37.1024 3.60071 36.99C3.60929 36.878 3.59063 36.7657 3.54607 36.661C3.50151 36.5564 3.43217 36.4622 3.34304 36.3851C3.11408 36.2294 2.83115 36.1553 2.54692 36.1764H1.35109V37.8006ZM3.45866 40.175C3.55623 40.0974 3.63292 40.0003 3.68277 39.8912C3.73262 39.7821 3.75428 39.6639 3.74606 39.5458C3.7535 39.4264 3.73085 39.307 3.67988 39.1969C3.6289 39.0868 3.55095 38.9888 3.45205 38.9107C3.21421 38.7492 2.9217 38.6699 2.6262 38.6868H1.35109V40.3897H2.64272C2.93345 40.4051 3.22122 40.3293 3.45866 40.175Z" fill="#AFB1B8" style="fill: var(--color1, #AFB1B8)"></path>
    <path d="M10.5709 41.3969L8.98857 38.9772H8.39396V41.3969H7.03296V35.2055H9.60961C10.2591 35.164 10.9012 35.3524 11.4034 35.7318C11.7635 36.0678 11.9808 36.5106 12.0159 36.9803C12.051 37.45 11.9018 37.9158 11.595 38.2937C11.2771 38.6271 10.8428 38.8494 10.3661 38.9228L12.0508 41.3969H10.5709ZM8.39396 38.1333H9.50721C10.2802 38.1333 10.6667 37.8208 10.6667 37.1957C10.6746 37.0681 10.6534 36.9403 10.6045 36.8205C10.5556 36.7008 10.48 36.5916 10.3826 36.5C10.1383 36.314 9.82374 36.2238 9.50721 36.249H8.38075L8.39396 38.1333Z" fill="#AFB1B8" style="fill: var(--color1, #AFB1B8)"></path>
    <path d="M18.0102 40.1506H15.2981L14.8191 41.3968H13.392L15.8828 35.2749H17.4255L19.9063 41.3968H18.4793L18.0102 40.1506ZM17.6468 39.213L16.6558 36.5997L15.6648 39.213H17.6468Z" fill="#AFB1B8" style="fill: var(--color1, #AFB1B8)"></path>
    <path d="M27.3224 41.3969H25.9713L22.9421 37.1866V41.3969H21.5943V35.2054H22.9421L25.9713 39.44V35.2054H27.3224V41.3969Z" fill="#AFB1B8" style="fill: var(--color1, #AFB1B8)"></path>
    <path d="M35.0326 39.9149C34.7532 40.3823 34.3276 40.7626 33.8103 41.0068C33.2222 41.2788 32.5695 41.4128 31.9109 41.397H29.506V35.2055H31.9109C32.5684 35.1898 33.2202 35.3206 33.8103 35.5866C34.3275 35.8253 34.7536 36.2017 35.0326 36.6664C35.3107 37.17 35.4556 37.7263 35.4556 38.2906C35.4556 38.8549 35.3107 39.4113 35.0326 39.9149ZM33.4866 39.7667C33.8722 39.3554 34.0842 38.8312 34.0842 38.2891C34.0842 37.7471 33.8722 37.2229 33.4866 36.8116C33.0205 36.439 32.4127 36.2499 31.7952 36.2853H30.8571V40.293H31.7952C32.4127 40.3283 33.0205 40.1392 33.4866 39.7667Z" fill="#AFB1B8" style="fill: var(--color1, #AFB1B8)"></path>
    <path d="M18.8558 0.766724C18.8558 0.766724 36.2945 6.79486 35.9245 15.518V30.2722C35.9245 30.2722 18.4991 24.2411 18.8624 15.518L18.8558 0.766724Z" fill="#AFB1B8" style="fill: var(--color1, #AFB1B8)"></path>
    <path d="M51.4603 26.8181C54.7538 24.7428 58.5633 23.4574 62.5399 23.0796V18.4609C57.9579 20.0779 54.0709 23.0098 51.4603 26.8181Z" fill="#AFB1B8" style="fill: var(--color1, #AFB1B8)"></path>
    <path d="M49.4816 28.2095C52.1773 23.2396 56.8505 19.4046 62.54 17.4932V4.18469C62.54 4.18469 37.705 12.7717 38.2303 25.1939V46.2001C38.2303 46.2001 39.3369 45.816 41.0778 45.0961C41.0778 44.4247 41.0778 43.7472 41.1571 43.0666C41.6711 37.2996 44.6654 31.9556 49.4816 28.2095Z" fill="#AFB1B8" style="fill: var(--color1, #AFB1B8)"></path>
    <path d="M47.1197 36.0131C47.2502 34.5563 47.5413 33.1152 47.9885 31.712C44.9896 34.9471 43.1734 38.9614 42.7956 43.1906C42.7592 43.5899 42.7394 43.9891 42.7295 44.4005C44.14 43.7804 45.7818 43.0061 47.5062 42.0957C47.0662 40.0948 46.936 38.0472 47.1197 36.0131Z" fill="#AFB1B8" style="fill: var(--color1, #AFB1B8)"></path>
    <path d="M48.1075 36.0887C47.9421 37.929 48.0454 39.7813 48.4147 41.5966C55.1999 37.8793 62.8241 32.1355 62.5301 25.1939V24.589C57.6824 25.0856 53.1468 27.026 49.6204 30.112C48.7948 32.0244 48.2849 34.0387 48.1075 36.0887Z" fill="#AFB1B8" style="fill: var(--color1, #AFB1B8)"></path>
  </symbol>
  <symbol fill="none" xmlns="http://www.w3.org/2000/svg" viewBox="0 0 66 70" id="icon-antenna">
    <path d="M65.3163 48.3385L46.8468 29.7337L48.8966 19.6373C49.4256 19.8438 49.9879 19.9517 50.5556 19.9558H50.5696C53.1777 19.9866 55.3169 17.8974 55.3479 15.2893C55.3788 12.6812 53.2894 10.542 50.6813 10.5111C48.0732 10.4803 45.934 12.5695 45.9031 15.1776C45.8965 15.7357 45.9888 16.2905 46.176 16.8163L35.326 18.1405L17.6276 0.35C17.4105 0.128479 17.1141 0.00247917 16.804 0C16.4977 0.00160417 16.2044 0.123521 15.9873 0.3395L12.6786 3.6295C12.2232 4.08508 12.2232 4.82358 12.6786 5.27917L14.459 7.08517C7.56162 19.7681 9.80191 35.4741 19.9703 45.7228C20.0636 45.8121 20.1718 45.8843 20.29 45.9363C20.2165 46.3311 20.1781 46.7317 20.1756 47.1333V60.6667H6.17562C2.95562 60.6705 0.346077 63.28 0.342285 66.5V68.8333C0.342285 69.4776 0.86466 70 1.50895 70H55.1756C55.8199 70 56.3423 69.4776 56.3423 68.8333V66.5C56.3385 63.28 53.729 60.6705 50.509 60.6667H36.509V54.6688C38.7021 55.1288 40.9367 55.3633 43.1776 55.3688C48.5548 55.363 53.8464 54.0225 58.5776 51.4675L60.3673 53.2677C60.5844 53.4892 60.8808 53.6152 61.191 53.6177C61.4972 53.6161 61.7905 53.4941 62.0076 53.2782L65.3163 49.9882C65.7717 49.5326 65.7717 48.7941 65.3163 48.3385ZM48.9246 13.6348C49.8383 12.726 51.3157 12.7301 52.2244 13.6437C53.1332 14.5574 53.1291 16.0348 52.2155 16.9435C51.7781 17.3785 51.1864 17.6226 50.5695 17.6225H50.5625C49.2739 17.6158 48.2345 16.5658 48.2412 15.2771C48.2445 14.6602 48.4918 14.0699 48.9291 13.6348H48.9246ZM46.1783 21.301L44.8693 27.7445L42.298 25.158L46.1783 21.301ZM44.853 19.3282L40.653 23.5037L37.4038 20.237L44.853 19.3282ZM50.509 63C52.442 63 54.009 64.567 54.009 66.5V67.6667H2.67562V66.5C2.67562 64.567 4.2426 63 6.17562 63H50.509ZM34.1756 58.3333V60.6667H22.509V58.3333H34.1756ZM22.509 56V47.1333C22.509 44.303 25.1258 42 28.3423 42C31.5588 42 34.1756 44.303 34.1756 47.1333V56H22.509ZM36.509 52.29V47.1333C36.509 43.0162 32.8456 39.6667 28.3423 39.6667C25.4306 39.622 22.7079 41.1041 21.165 43.5738C12.2887 34.2249 10.2899 20.2875 16.1805 8.82073L56.872 49.7455C50.5886 52.9419 43.3857 53.8418 36.509 52.29ZM61.2038 50.7943L59.56 49.1412L16.7923 6.11567L15.1415 4.46133L16.7923 2.81633L34.15 20.272C34.1581 20.272 34.1628 20.2872 34.171 20.293L62.8593 49.1493L61.2038 50.7943Z" fill="#212121"></path>
    <path d="M28.3528 44.3333H28.3423C26.4093 44.3304 24.84 45.895 24.837 47.8281C24.8341 49.7611 26.3988 51.3304 28.3318 51.3333H28.3423C30.2753 51.3362 31.8446 49.7716 31.8475 47.8386C31.8505 45.9055 30.2858 44.3362 28.3528 44.3333ZM29.1695 48.6605C28.9498 48.8789 28.6522 49.0012 28.3423 49C27.698 48.9966 27.1784 48.4716 27.1817 47.8273C27.1834 47.5189 27.307 47.2237 27.5256 47.0062C27.7428 46.7902 28.036 46.6683 28.3423 46.6667C28.9866 46.67 29.5062 47.195 29.5028 47.8393C29.5012 48.1477 29.3776 48.4429 29.159 48.6605H29.1695Z" fill="#2196F3"></path>
  </symbol>
  <symbol fill="none" xmlns="http://www.w3.org/2000/svg" viewBox="0 0 20 20" id="icon-instagram">
    <g clip-path="url(#clip0_3334_172)">
      <path d="M19.9804 5.88005C19.9336 4.81738 19.7617 4.0868 19.5156 3.45374C19.2616 2.78176 18.8709 2.18014 18.359 1.68002C17.8589 1.1721 17.2533 0.777435 16.5891 0.527447C15.9524 0.281274 15.2256 0.109427 14.163 0.0625732C13.0924 0.0117516 12.7525 0 10.0371 0C7.32173 0 6.98185 0.0117516 5.91521 0.0586052C4.85253 0.105459 4.12195 0.277459 3.48904 0.523479C2.81692 0.777435 2.2153 1.16814 1.71517 1.68002C1.20726 2.18014 0.812743 2.78573 0.562603 3.44992C0.31643 4.0868 0.144583 4.81341 0.0977294 5.87609C0.0469078 6.9467 0.0351562 7.28658 0.0351562 10.002C0.0351562 12.7173 0.0469078 13.0572 0.0937614 14.1239C0.140615 15.1865 0.312615 15.9171 0.558787 16.5502C0.812743 17.2221 1.20726 17.8238 1.71517 18.3239C2.2153 18.8318 2.82088 19.2265 3.48508 19.4765C4.12195 19.7226 4.84856 19.8945 5.91139 19.9413C6.97788 19.9883 7.31791 19.9999 10.0333 19.9999C12.7487 19.9999 13.0885 19.9883 14.1552 19.9413C15.2179 19.8945 15.9484 19.7226 16.5813 19.4765C17.9254 18.9568 18.9881 17.8941 19.5078 16.5502C19.7538 15.9133 19.9258 15.1865 19.9727 14.1239C20.0195 13.0572 20.0313 12.7173 20.0313 10.002C20.0313 7.28658 20.0273 6.9467 19.9804 5.88005ZM18.1794 14.0457C18.1364 15.0225 17.9723 15.5499 17.8356 15.9015C17.4995 16.7728 16.808 17.4643 15.9367 17.8004C15.5851 17.9372 15.0538 18.1012 14.0809 18.1441C13.026 18.1911 12.7096 18.2027 10.0411 18.2027C7.37255 18.2027 7.05221 18.1911 6.00113 18.1441C5.02438 18.1012 4.49693 17.9372 4.1453 17.8004C3.71171 17.6402 3.31704 17.3862 2.9967 17.0541C2.6646 16.7298 2.41065 16.3391 2.2504 15.9055C2.11365 15.5539 1.94959 15.0225 1.90671 14.0497C1.8597 12.9948 1.8481 12.6783 1.8481 10.0097C1.8481 7.34122 1.8597 7.02087 1.90671 5.96995C1.94959 4.99319 2.11365 4.46575 2.2504 4.11412C2.41065 3.68038 2.6646 3.28586 3.00067 2.96536C3.32483 2.63327 3.71553 2.37931 4.14927 2.21921C4.5009 2.08247 5.03231 1.9184 6.0051 1.87537C7.05999 1.82851 7.37652 1.81676 10.0449 1.81676C12.7174 1.81676 13.0337 1.82851 14.0848 1.87537C15.0616 1.9184 15.589 2.08247 15.9407 2.21921C16.3742 2.37931 16.7689 2.63327 17.0893 2.96536C17.4213 3.28967 17.6753 3.68038 17.8356 4.11412C17.9723 4.46575 18.1364 4.99701 18.1794 5.96995C18.2263 7.02484 18.238 7.34122 18.238 10.0097C18.238 12.6783 18.2263 12.9908 18.1794 14.0457Z" fill="#AFB1B8" style="fill: var(--color1, #AFB1B8)"></path>
      <path d="M10.0371 4.8642C7.20074 4.8642 4.89941 7.16537 4.89941 10.0019C4.89941 12.8385 7.20074 15.1396 10.0371 15.1396C12.8737 15.1396 15.1749 12.8385 15.1749 10.0019C15.1749 7.16537 12.8737 4.8642 10.0371 4.8642ZM10.0371 13.3346C8.19702 13.3346 6.70442 11.8422 6.70442 10.0019C6.70442 8.16165 8.19702 6.66921 10.0371 6.66921C11.8774 6.66921 13.3698 8.16165 13.3698 10.0019C13.3698 11.8422 11.8774 13.3346 10.0371 13.3346Z" fill="#AFB1B8" style="fill: var(--color1, #AFB1B8)"></path>
      <path d="M16.5775 4.6611C16.5775 5.32346 16.0404 5.86052 15.3779 5.86052C14.7155 5.86052 14.1785 5.32346 14.1785 4.6611C14.1785 3.99858 14.7155 3.46167 15.3779 3.46167C16.0404 3.46167 16.5775 3.99858 16.5775 4.6611Z" fill="#AFB1B8" style="fill: var(--color1, #AFB1B8)"></path>
    </g>
    <defs>
      <clipPath id="clip0_3334_172">
        <rect width="20" height="20" fill="white"></rect>
      </clipPath>
    </defs>
  </symbol>
  <symbol fill="none" xmlns="http://www.w3.org/2000/svg" viewBox="0 0 20 20" id="icon-linkedin">
    <g clip-path="url(#clip0_3334_156)">
      <path d="M19.9951 20V19.9992H20.0001V12.6642C20.0001 9.07587 19.2276 6.31171 15.0326 6.31171C13.0159 6.31171 11.6626 7.41837 11.1101 8.46754H11.0517V6.64671H7.07422V19.9992H11.2159V13.3875C11.2159 11.6467 11.5459 9.96337 13.7017 9.96337C15.8259 9.96337 15.8576 11.95 15.8576 13.4992V20H19.9951Z" fill="#AFB1B8" style="fill: var(--color1, #AFB1B8)"></path>
      <path d="M0.329956 6.64746H4.47662V20H0.329956V6.64746Z" fill="#AFB1B8" style="fill: var(--color1, #AFB1B8)"></path>
      <path d="M2.40167 0C1.07583 0 0 1.07583 0 2.40167C0 3.7275 1.07583 4.82583 2.40167 4.82583C3.7275 4.82583 4.80333 3.7275 4.80333 2.40167C4.8025 1.07583 3.72667 0 2.40167 0V0Z" fill="#AFB1B8" style="fill: var(--color1, #AFB1B8)"></path>
    </g>
    <defs>
      <clipPath id="clip0_3334_156">
        <rect width="20" height="20" fill="white"></rect>
      </clipPath>
    </defs>
  </symbol>
  <symbol fill="none" xmlns="http://www.w3.org/2000/svg" viewBox="0 0 94 45" id="icon-group-4">
    <path d="M47.425 21.4082C46.9819 20.8184 46.7699 20.1213 46.8203 19.4196V16.5364C46.8203 15.6526 47.0207 14.9809 47.4216 14.5214C47.8224 14.0619 48.511 13.8331 49.4871 13.8351C50.4044 13.8351 51.0555 14.0306 51.4405 14.4217C51.8605 14.9207 52.0648 15.5309 52.018 16.1463V16.8239H50.3772V16.1375C50.383 15.9129 50.3671 15.6882 50.3296 15.4659C50.306 15.3138 50.2234 15.1732 50.0952 15.067C49.9267 14.9525 49.7145 14.897 49.5007 14.9115C49.2759 14.897 49.0529 14.9556 48.8756 15.0758C48.7327 15.1935 48.6374 15.3477 48.6038 15.5157C48.5567 15.7511 48.5351 15.9897 48.5393 16.2285V19.7276C48.5134 20.0652 48.5858 20.403 48.7499 20.7102C48.8315 20.8141 48.9448 20.8965 49.0774 20.9483C49.2099 21.0001 49.3564 21.0192 49.5007 21.0035C49.7109 21.0184 49.9195 20.9615 50.0816 20.8451C50.2153 20.7305 50.3013 20.581 50.3262 20.4198C50.3645 20.1877 50.3816 19.9533 50.3772 19.7188V19.009H52.018V19.6572C52.0641 20.2988 51.8648 20.9356 51.4507 21.4698C51.0736 21.8981 50.4315 22.1122 49.4871 22.1122C48.5427 22.1122 47.8292 21.8834 47.425 21.4082Z" fill="#AFB1B8" style="fill: var(--color1, #AFB1B8)"></path>
    <path d="M54.2569 21.4376C53.8424 20.9888 53.6352 20.3347 53.6352 19.4695V16.4367C53.6352 15.5803 53.8424 14.9321 54.2569 14.4921C54.6713 14.0521 55.3644 13.8331 56.3359 13.8351C57.3007 13.8351 57.9904 14.0541 58.4048 14.4921C58.8193 14.9321 59.0299 15.5803 59.0299 16.4367V19.4695C59.0299 20.3259 58.8193 20.9829 58.398 21.4346C57.9768 21.8863 57.2906 22.1122 56.3359 22.1122C55.3813 22.1122 54.6747 21.8834 54.2569 21.4376ZM57.1003 20.7102C57.2487 20.4291 57.3163 20.1212 57.2974 19.8127V16.0994C57.3164 15.7969 57.2499 15.4949 57.1037 15.2195C57.0205 15.1134 56.9043 15.0296 56.7686 14.9777C56.6328 14.9259 56.4829 14.908 56.3359 14.9262C56.1885 14.9085 56.0383 14.9265 55.9021 14.9783C55.7659 15.0301 55.6491 15.1136 55.5648 15.2195C55.4154 15.4941 55.3477 15.7965 55.3678 16.0994V19.8303C55.3471 20.1389 55.4148 20.4471 55.5648 20.7278C55.6604 20.8224 55.7785 20.8982 55.9109 20.9502C56.0433 21.0021 56.1871 21.029 56.3326 21.029C56.478 21.029 56.6218 21.0021 56.7542 20.9502C56.8866 20.8982 57.0047 20.8224 57.1003 20.7278V20.7102Z" fill="#AFB1B8" style="fill: var(--color1, #AFB1B8)"></path>
    <path d="M61.0035 13.9236H62.7701L64.0984 19.5192L65.4573 13.9236H67.1763L67.3496 22.0003H66.079L65.9431 16.3871L64.6318 22.0003H63.6126L62.2537 16.3665L62.128 22.0003H60.8439L61.0035 13.9236Z" fill="#AFB1B8" style="fill: var(--color1, #AFB1B8)"></path>
    <path d="M69.3302 13.9236H72.0819C73.6673 13.9236 74.4599 14.688 74.4599 16.217C74.4599 17.6814 73.6254 18.4126 71.9562 18.4106H71.0186V22.0003H69.32L69.3302 13.9236ZM71.6811 17.3754C71.8489 17.3938 72.0193 17.3805 72.1806 17.3364C72.3419 17.2924 72.4902 17.2186 72.6153 17.1203C72.8101 16.8475 72.896 16.5271 72.8599 16.2082C72.8688 15.9618 72.8414 15.7154 72.7783 15.475C72.7541 15.3947 72.7116 15.3194 72.6533 15.2534C72.5949 15.1874 72.522 15.1322 72.4386 15.0908C72.2028 14.9932 71.9422 14.9488 71.6811 14.9618H71.022V17.3754H71.6811Z" fill="#AFB1B8" style="fill: var(--color1, #AFB1B8)"></path>
    <path d="M76.9094 13.9236H78.7337L80.6055 22.0003H79.0225L78.6522 20.138H77.0249L76.6444 22.0003H75.0376L76.9094 13.9236ZM78.4687 19.2025L77.8334 15.8123L77.1982 19.2025H78.4687Z" fill="#AFB1B8" style="fill: var(--color1, #AFB1B8)"></path>
    <path d="M82.1173 13.9236H83.3063L85.5825 18.5309V13.9236H86.9923V22.0003H85.861L83.5713 17.1906V22.0003H82.1139L82.1173 13.9236Z" fill="#AFB1B8" style="fill: var(--color1, #AFB1B8)"></path>
    <path d="M90.2945 18.9208L88.4022 13.9349H89.9955L91.1506 17.1376L92.2343 13.9349H93.7936L91.9251 18.9208V22.0003H90.2945V18.9208Z" fill="#AFB1B8" style="fill: var(--color1, #AFB1B8)"></path>
    <path d="M50.0477 25.5316V25.954H48.6617V29.2359H48.0807V25.954H46.6879V25.5316H50.0477Z" fill="#AFB1B8" style="fill: var(--color1, #AFB1B8)"></path>
    <path d="M54.3927 29.2362H53.9442C53.8987 29.2386 53.8538 29.2261 53.8185 29.201C53.7846 29.1795 53.7587 29.15 53.7438 29.116L53.3429 28.2361H51.4201L51.0192 29.116C51.0078 29.1528 50.9869 29.1868 50.958 29.2157C50.9225 29.2402 50.8778 29.2527 50.8324 29.2509H50.3839L52.0825 25.5468H52.6737L54.3927 29.2362ZM51.5797 27.8607H53.1833L52.5038 26.3533C52.4537 26.2393 52.4117 26.1227 52.3781 26.0043C52.3543 26.0747 52.3339 26.1421 52.3136 26.2008L52.2524 26.3562L51.5797 27.8607Z" fill="#AFB1B8" style="fill: var(--color1, #AFB1B8)"></path>
    <path d="M57.3211 28.8724C57.4275 28.8772 57.5341 28.8772 57.6404 28.8724C57.7323 28.8642 57.8232 28.8495 57.9122 28.8284C57.9954 28.8107 58.0772 28.7882 58.1568 28.7609C58.2316 28.7345 58.3063 28.7022 58.3844 28.67V27.8369H57.705C57.6882 27.8378 57.6714 27.8356 57.6556 27.8305C57.6398 27.8255 57.6254 27.8177 57.6133 27.8076C57.6021 27.7993 57.5933 27.7889 57.5874 27.7772C57.5815 27.7655 57.5787 27.7529 57.5793 27.7401V27.4556H58.8974V28.8753C58.7898 28.9417 58.6762 29.0006 58.5577 29.0513C58.4366 29.1029 58.3104 29.1451 58.1806 29.1774C58.0417 29.2127 57.8996 29.2382 57.7559 29.2537C57.5912 29.2695 57.4257 29.2773 57.26 29.2771C56.967 29.2793 56.6763 29.2325 56.4038 29.1393C56.1495 29.051 55.9184 28.9193 55.7244 28.7521C55.5353 28.5832 55.3864 28.3839 55.2862 28.1655C55.1791 27.9199 55.1261 27.6593 55.1299 27.397C55.1263 27.133 55.1781 26.8706 55.2828 26.6226C55.3805 26.4031 55.5297 26.2033 55.721 26.036C55.9149 25.8693 56.1461 25.7386 56.4005 25.6517C56.6914 25.5572 57.0001 25.5105 57.3109 25.5138C57.4691 25.5137 57.627 25.5245 57.7831 25.5461C57.9212 25.5655 58.0567 25.597 58.1874 25.64C58.3062 25.6785 58.4201 25.7277 58.5271 25.7866C58.6312 25.8445 58.7301 25.9092 58.8227 25.9802L58.6596 26.209C58.6468 26.2299 58.6278 26.2475 58.6045 26.2598C58.5812 26.2722 58.5545 26.279 58.5271 26.2794C58.4895 26.2784 58.453 26.2682 58.4218 26.2501C58.3708 26.2266 58.3165 26.1973 58.2553 26.1621C58.1831 26.123 58.1069 26.0896 58.0277 26.0624C57.9265 26.0273 57.8219 25.9998 57.7152 25.9802C57.5729 25.9576 57.4284 25.9468 57.2837 25.948C57.0596 25.9458 56.8371 25.9807 56.6281 26.0506C56.439 26.1161 56.2686 26.2162 56.1287 26.3439C55.9879 26.4771 55.8803 26.6339 55.8127 26.8045C55.661 27.2056 55.661 27.6381 55.8127 28.0393C55.8871 28.2135 56.0028 28.3724 56.1525 28.5057C56.2918 28.6328 56.4609 28.7328 56.6485 28.799C56.8645 28.8631 57.0934 28.888 57.3211 28.8724Z" fill="#AFB1B8" style="fill: var(--color1, #AFB1B8)"></path>
    <path d="M62.7362 28.8136H64.5911V29.2359H62.1689V25.5316H62.7498L62.7362 28.8136Z" fill="#AFB1B8" style="fill: var(--color1, #AFB1B8)"></path>
    <path d="M66.5208 29.2359H65.9398V25.5316H66.5208V29.2359Z" fill="#AFB1B8" style="fill: var(--color1, #AFB1B8)"></path>
    <path d="M68.6814 25.5492C68.7159 25.5662 68.746 25.5892 68.7697 25.6167L71.253 28.409C71.2497 28.3651 71.2497 28.321 71.253 28.277C71.253 28.236 71.253 28.1949 71.253 28.1568V25.517H71.7592V29.2362H71.4671C71.4238 29.2392 71.3804 29.2321 71.3414 29.2156C71.3061 29.1972 71.275 29.1733 71.2496 29.1452L68.7697 26.3558C68.7697 26.3998 68.7697 26.4409 68.7697 26.482C68.7697 26.523 68.7697 26.5612 68.7697 26.5964V29.2362H68.2839V25.5316H68.5863C68.6191 25.5317 68.6515 25.5377 68.6814 25.5492Z" fill="#AFB1B8" style="fill: var(--color1, #AFB1B8)"></path>
    <path d="M76.0364 25.5316V25.9393H73.9777V27.1624H75.6457V27.5554H73.9777V28.8195H76.0364V29.2272H73.3798V25.5316H76.0364Z" fill="#AFB1B8" style="fill: var(--color1, #AFB1B8)"></path>
    <path d="M15.1617 2.65551L40.9568 8.97882V31.1368L15.1617 24.8164V2.65551ZM13.5073 0.766724V25.8928L42.6079 33.0285V7.90538L13.5073 0.766724Z" fill="#AFB1B8" style="fill: var(--color1, #AFB1B8)"></path>
    <path d="M29.1039 44.6922L0 37.5505V12.4271L29.1039 19.5659V44.6922Z" fill="#AFB1B8" style="fill: var(--color1, #AFB1B8)"></path>
    <path d="M13.9897 2.37099L39.4484 8.615L28.6215 17.9649L3.1594 11.7179L13.9897 2.37099ZM13.5073 0.766724L0 12.4277L29.1039 19.5662L42.6078 7.90525L13.5073 0.766724Z" fill="#AFB1B8" style="fill: var(--color1, #AFB1B8)"></path>
    <path d="M30.7414 43.2788L42.6078 33.0315L30.7414 30.1193V43.2788Z" fill="#AFB1B8" style="fill: var(--color1, #AFB1B8)"></path>
  </symbol>
  <symbol fill="none" xmlns="http://www.w3.org/2000/svg" viewBox="0 0 45 42" id="icon-group-1">
    <path d="M7.40628 41.1014C7.42219 41.1018 7.43786 41.1049 7.45238 41.1106C7.46689 41.1163 7.47995 41.1245 7.4908 41.1346L7.70892 41.3431C7.53961 41.5118 7.33035 41.6468 7.09546 41.7388C6.82039 41.8391 6.52394 41.8875 6.22572 41.8809C5.94548 41.8859 5.66705 41.8408 5.40777 41.7482C5.17389 41.6632 4.96376 41.5356 4.79159 41.3739C4.61588 41.2062 4.48054 41.0096 4.39353 40.7958C4.29824 40.5574 4.25119 40.3065 4.25448 40.0542C4.25061 39.8003 4.30147 39.548 4.40443 39.3103C4.49968 39.0951 4.64335 38.8986 4.82704 38.7322C5.01321 38.5691 5.23592 38.4408 5.48139 38.3555C5.74992 38.265 6.03588 38.22 6.32387 38.2228C6.59138 38.2172 6.85747 38.2582 7.10637 38.3436C7.32231 38.425 7.52058 38.538 7.69256 38.6777L7.50988 38.9004C7.49726 38.9161 7.48158 38.9297 7.46353 38.9407C7.44198 38.9535 7.41593 38.9594 7.38992 38.9573C7.36162 38.9556 7.33434 38.9474 7.31085 38.9336L7.2127 38.8743L7.07637 38.7985C7.01753 38.7704 6.95649 38.7458 6.8937 38.7251C6.81283 38.6999 6.72989 38.6801 6.64559 38.6659C6.5386 38.6487 6.42992 38.6408 6.32114 38.6422C6.11376 38.6399 5.90796 38.6737 5.71587 38.7417C5.53672 38.8046 5.37501 38.8999 5.24146 39.0212C5.10551 39.1503 5.00074 39.3018 4.93337 39.4667C4.85658 39.6553 4.81874 39.8542 4.82158 40.0542C4.81831 40.2574 4.85615 40.4595 4.93337 40.6513C4.9999 40.8147 5.10272 40.9653 5.23601 41.0943C5.36088 41.2146 5.51567 41.3086 5.6886 41.3692C5.86657 41.4333 6.0576 41.4655 6.25025 41.4639C6.36154 41.4654 6.47278 41.4591 6.58288 41.445C6.76267 41.4259 6.93513 41.3716 7.08728 41.2862C7.16359 41.2425 7.23563 41.1934 7.30267 41.1393C7.3307 41.1161 7.36756 41.1026 7.40628 41.1014Z" fill="#AFB1B8" style="fill: var(--color1, #AFB1B8)"></path>
    <path d="M13.7044 40.0538C13.7078 40.3052 13.6579 40.5549 13.5571 40.7906C13.4683 41.0043 13.3283 41.1993 13.1465 41.3626C12.9646 41.526 12.745 41.654 12.502 41.7382C11.9682 41.9151 11.3781 41.9151 10.8443 41.7382C10.603 41.6527 10.3848 41.5244 10.2036 41.3615C10.0219 41.1952 9.88089 40.9986 9.78921 40.7835C9.59281 40.3063 9.59281 39.7847 9.78921 39.3076C9.88222 39.0923 10.023 38.8951 10.2036 38.7271C10.3863 38.5694 10.6044 38.446 10.8443 38.3647C11.3775 38.1846 11.9689 38.1846 12.502 38.3647C12.7442 38.4502 12.9633 38.5784 13.1455 38.7414C13.325 38.906 13.4649 39.1001 13.5571 39.3123C13.6582 39.5495 13.7081 39.8009 13.7044 40.0538ZM13.1318 40.0538C13.1361 39.8527 13.1011 39.6525 13.0282 39.4615C12.9671 39.298 12.8678 39.1472 12.7365 39.0185C12.6087 38.8968 12.4513 38.8013 12.2757 38.739C11.8879 38.6095 11.4585 38.6095 11.0706 38.739C10.8951 38.8013 10.7377 38.8968 10.6099 39.0185C10.4767 39.1464 10.3764 39.2974 10.3154 39.4615C10.1767 39.8472 10.1767 40.2604 10.3154 40.6461C10.377 40.81 10.4773 40.9609 10.6099 41.0891C10.7379 41.2101 10.8953 41.3048 11.0706 41.3663C11.4592 41.4925 11.8872 41.4925 12.2757 41.3663C12.4511 41.3048 12.6085 41.2101 12.7365 41.0891C12.8672 40.9601 12.9665 40.8094 13.0282 40.6461C13.1014 40.4552 13.1364 40.2549 13.1318 40.0538Z" fill="#AFB1B8" style="fill: var(--color1, #AFB1B8)"></path>
    <path d="M18.0013 40.6747L18.0586 40.8074C18.0804 40.76 18.0995 40.7173 18.1213 40.6747C18.1421 40.6302 18.1657 40.5867 18.1922 40.5444L19.5854 38.3438C19.6127 38.3059 19.6372 38.2823 19.6645 38.2751C19.7015 38.2653 19.7403 38.2613 19.779 38.2633H20.1907V41.8425H19.7026V39.2108C19.7026 39.1776 19.7026 39.1397 19.7026 39.0995C19.7 39.0585 19.7 39.0173 19.7026 38.9763L18.3012 41.2077C18.2834 41.2411 18.255 41.2694 18.2192 41.2891C18.1834 41.3089 18.1418 41.3192 18.0995 41.319H18.0204C17.9779 41.3195 17.9362 41.3093 17.9004 41.2895C17.8646 41.2697 17.8362 41.2413 17.8186 41.2077L16.3763 38.9621C16.3763 39.0047 16.3763 39.0474 16.3763 39.09C16.3763 39.1326 16.3763 39.1705 16.3763 39.2037V41.8354H15.9047V38.2633H16.3164C16.355 38.2613 16.3938 38.2653 16.4309 38.2751C16.4647 38.2897 16.4916 38.314 16.5072 38.3438L17.9304 40.5468C17.9584 40.5875 17.9821 40.6303 18.0013 40.6747Z" fill="#AFB1B8" style="fill: var(--color1, #AFB1B8)"></path>
    <path d="M23.2443 40.4969V41.8376H22.699V38.2632H23.915C24.1446 38.2594 24.3735 38.2857 24.5939 38.3413C24.7704 38.3848 24.9341 38.4607 25.0738 38.564C25.1949 38.6608 25.2883 38.7808 25.3464 38.9146C25.4108 39.0604 25.4423 39.2156 25.4391 39.3717C25.4415 39.5285 25.4072 39.684 25.3383 39.8289C25.2727 39.966 25.172 40.0884 25.0438 40.1866C24.9039 40.2941 24.7395 40.3749 24.5612 40.4234C24.3489 40.4824 24.1269 40.5104 23.9041 40.5063L23.2443 40.4969ZM23.2443 40.1131H23.9041C24.0475 40.1148 24.1901 40.0964 24.3267 40.0587C24.4394 40.0257 24.5433 39.9733 24.6321 39.9047C24.714 39.8391 24.7775 39.7581 24.8175 39.6678C24.8621 39.5723 24.8844 39.4701 24.8829 39.367C24.8893 39.2676 24.8706 39.1683 24.8282 39.0758C24.7859 38.9834 24.7208 38.9 24.6376 38.8317C24.4293 38.6904 24.1676 38.6219 23.9041 38.6398H23.2443V40.1131Z" fill="#AFB1B8" style="fill: var(--color1, #AFB1B8)"></path>
    <path d="M30.5731 41.8424H30.1423C30.0991 41.8438 30.0566 41.8321 30.0223 41.8092C29.9914 41.7869 29.9671 41.7585 29.9514 41.7263L29.5806 40.8616H27.7185L27.334 41.7263C27.3199 41.7579 27.2964 41.7857 27.2659 41.8069C27.2312 41.8311 27.1877 41.8437 27.1432 41.8424H26.7124L28.3483 38.2628H28.9154L30.5731 41.8424ZM27.8739 40.5134H29.4116L28.7627 39.0564C28.7131 38.9468 28.6721 38.8344 28.64 38.72L28.5773 38.9072C28.5582 38.964 28.5364 39.0162 28.5173 39.0588L27.8739 40.5134Z" fill="#AFB1B8" style="fill: var(--color1, #AFB1B8)"></path>
    <path d="M32.9288 38.2795C32.9614 38.295 32.9894 38.3169 33.0106 38.3434L35.3962 41.0417C35.3962 40.9991 35.3962 40.9564 35.3962 40.9161C35.3962 40.8759 35.3962 40.8356 35.3962 40.7977V38.2629H35.8843V41.8424H35.6116C35.5729 41.8434 35.5345 41.8361 35.4998 41.8211C35.4662 41.804 35.4365 41.7815 35.4126 41.7548L33.0297 39.0589C33.0323 39.0999 33.0323 39.141 33.0297 39.1821C33.0297 39.2223 33.0297 39.2579 33.0297 39.291V41.8424H32.5416V38.2629H32.8306C32.8644 38.2621 32.8979 38.2677 32.9288 38.2795Z" fill="#AFB1B8" style="fill: var(--color1, #AFB1B8)"></path>
    <path d="M39.9031 40.4188V41.8402H39.3578V40.4188L37.85 38.2631H38.3381C38.3801 38.2609 38.4217 38.2718 38.4553 38.2938C38.485 38.3168 38.5099 38.3441 38.5289 38.3744L39.4723 39.765C39.5105 39.8242 39.5432 39.8787 39.5705 39.9308C39.5977 39.9829 39.6195 40.0327 39.6386 40.0824L39.7095 39.9284C39.736 39.8721 39.7669 39.8175 39.8022 39.765L40.7319 38.3649C40.7515 38.337 40.7753 38.3115 40.8028 38.2891C40.8352 38.2646 40.8772 38.2518 40.9201 38.2536H41.4136L39.9031 40.4188Z" fill="#AFB1B8" style="fill: var(--color1, #AFB1B8)"></path>
    <path d="M17.7314 32.2561C17.9686 32.2822 18.2085 32.3035 18.4512 32.3225C22.13 30.8926 25.2422 28.5523 27.3986 25.5942C29.5551 22.636 30.6602 19.1912 30.5758 15.6904L26.5216 12.1678C27.3459 15.8951 26.9603 19.7482 25.4079 23.2959C23.8555 26.8437 21.1975 29.9461 17.7314 32.2561Z" fill="#AFB1B8" style="fill: var(--color1, #AFB1B8)"></path>
    <path d="M16.2837 32.0923L16.3928 32.1112C20.0966 29.8094 22.9205 26.5951 24.4993 22.8839C26.078 19.1727 26.3389 15.1353 25.2483 11.2939L19.4737 6.27673C21.8094 10.4008 22.7495 15.0162 22.1848 19.5862C21.6201 24.1562 19.5737 28.493 16.2837 32.0923Z" fill="#AFB1B8" style="fill: var(--color1, #AFB1B8)"></path>
    <path d="M35.8679 19.8265C34.8868 23.6731 32.5041 27.1423 29.0735 29.7189C28.0716 30.4755 26.9909 31.1496 25.8454 31.7324C28.6389 31.019 31.2065 29.7578 33.3502 28.046C35.494 26.3341 37.1566 24.2174 38.21 21.859L35.8679 19.8265Z" fill="#AFB1B8" style="fill: var(--color1, #AFB1B8)"></path>
    <path d="M34.9491 19.2601L31.6146 16.3629C31.5509 19.666 30.4701 22.894 28.4846 25.7114C26.4991 28.5287 23.6814 30.8327 20.3243 32.3837H20.3406C21.0888 32.3835 21.8362 32.3447 22.5791 32.2676C25.7165 31.155 28.488 29.3849 30.6465 27.1152C32.8049 24.8455 34.2831 22.1469 34.9491 19.2601Z" fill="#AFB1B8" style="fill: var(--color1, #AFB1B8)"></path>
    <path d="M16.7663 4.16091L12.7883 0.699951C9.23222 1.89391 6.1738 3.99283 4.01337 6.72203C1.85294 9.45122 0.69115 12.6835 0.680054 15.9959H0.680054C0.693382 19.656 2.11126 23.2077 4.70929 26.0888C7.30731 28.9699 10.9371 31.016 15.0241 31.903C18.6725 28.041 20.8086 23.2687 21.1219 18.2798C21.4352 13.2908 19.9094 8.34495 16.7663 4.16091Z" fill="#AFB1B8" style="fill: var(--color1, #AFB1B8)"></path>
    <path d="M44.14 18.7273C44.1257 14.3848 42.1338 10.2238 38.5997 7.15318C35.0655 4.08257 30.2763 2.35199 25.2783 2.33949C22.9688 2.33741 20.6789 2.70769 18.5248 3.43153L42.8804 24.5926C43.7144 22.7221 44.1415 20.7333 44.14 18.7273Z" fill="#AFB1B8" style="fill: var(--color1, #AFB1B8)"></path>
  </symbol>
  <symbol fill="none" xmlns="http://www.w3.org/2000/svg" viewBox="0 0 10 16" id="icon-smartphone">
    <path d="M8.5 0H1.5C0.672848 0 0 0.672848 0 1.5V14.5C0 15.3272 0.672848 16 1.5 16H8.5C9.32715 16 10 15.3272 10 14.5V1.5C10 0.672848 9.32715 0 8.5 0ZM1.5 1H8.5C8.77588 1 9 1.22412 9 1.5V12H1V1.5C1 1.22412 1.22412 1 1.5 1ZM8.5 15H1.5C1.22412 15 1 14.7759 1 14.5V13H9V14.5C9 14.7759 8.77588 15 8.5 15Z"  fill="#757575" style="fill: var(--color1, #757575)"></path>
    <path d="M2.35355 13.7389C2.54882 13.9213 2.54882 14.2169 2.35355 14.3992C2.15828 14.5816 1.84172 14.5816 1.64645 14.3992C1.45118 14.2169 1.45118 13.9213 1.64645 13.7389C1.84172 13.5566 2.15828 13.5566 2.35355 13.7389Z" fill="#757575" style="fill: var(--color1, #757575)"  ></path>
  </symbol>
  <symbol fill="none" xmlns="http://www.w3.org/2000/svg" viewBox="0 0 41 48" id="icon-Union">
    <path fill-rule="evenodd" clip-rule="evenodd" d="M6 0.713135L13.0078 7.34726L0 7.3396V39.5269H34V27.2202L41 33.8469V0.713135H6ZM33.6924 26.4415L13.8226 7.63109H33.6924V26.4415ZM27.5231 34.8187H5.38008V13.1711H6.9453V33.3528H27.5231V34.8187ZM10.6089 43.8123L9.79102 45.4968L8.97314 43.8123H8.28711L9.48096 46.0583V47.3669H10.1011V46.0583L11.2925 43.8123H10.6089ZM11.6367 47.3669L11.9248 46.5393H13.3018L13.5923 47.3669H14.2368L12.8916 43.8123H12.3374L10.9946 47.3669H11.6367ZM12.6133 44.5667L13.1284 46.0413H12.0981L12.6133 44.5667ZM15.8701 45.9558C15.7806 46.0925 15.7358 46.2431 15.7358 46.4075C15.7358 46.707 15.8408 46.9503 16.0508 47.1375C16.2624 47.323 16.5439 47.4158 16.8955 47.4158C17.2471 47.4158 17.5498 47.3206 17.8037 47.1301L18.0039 47.3669H18.6924L18.1699 46.7493C18.375 46.4693 18.4775 46.1104 18.4775 45.6726H17.9624C17.9624 45.9119 17.9128 46.1292 17.8135 46.3245L17.1274 45.5139L17.3691 45.3381C17.54 45.2144 17.6629 45.0907 17.7378 44.967C17.8127 44.8417 17.8501 44.705 17.8501 44.5569C17.8501 44.3323 17.7671 44.1443 17.6011 43.9929C17.4367 43.8399 17.2251 43.7634 16.9663 43.7634C16.6798 43.7634 16.452 43.8448 16.2827 44.0076C16.1134 44.1687 16.0288 44.3884 16.0288 44.6667C16.0288 44.7807 16.0557 44.8987 16.1094 45.0208C16.1647 45.1428 16.2616 45.2909 16.3999 45.4651C16.1362 45.6539 15.9596 45.8175 15.8701 45.9558ZM17.4741 46.7419C17.3 46.8754 17.1128 46.9421 16.9126 46.9421C16.7352 46.9421 16.5936 46.8909 16.4878 46.7883C16.382 46.6858 16.3291 46.5523 16.3291 46.3879C16.3291 46.1975 16.4268 46.0282 16.6221 45.8801L16.6978 45.8264L17.4741 46.7419ZM16.8369 45.1672C16.6693 44.9605 16.5854 44.7888 16.5854 44.6521C16.5854 44.5333 16.6196 44.4348 16.688 44.3567C16.7563 44.2786 16.8483 44.2395 16.9639 44.2395C17.0713 44.2395 17.16 44.2729 17.23 44.3396C17.3 44.4047 17.335 44.4836 17.335 44.5764C17.335 44.7164 17.2845 44.8311 17.1836 44.9207L17.1079 44.9817L16.8369 45.1672ZM22.623 47.0984C22.8672 46.8852 23.0072 46.5889 23.043 46.2097H22.4277C22.3952 46.4636 22.3179 46.6451 22.1958 46.7542C22.0737 46.8632 21.8914 46.9177 21.6489 46.9177C21.3836 46.9177 21.1818 46.8168 21.0435 46.615C20.9067 46.4132 20.8384 46.1202 20.8384 45.7361V45.4211C20.8416 45.0419 20.9149 44.7546 21.0581 44.5593C21.203 44.3624 21.4097 44.2639 21.6782 44.2639C21.9093 44.2639 22.0843 44.3209 22.2031 44.4348C22.3236 44.5471 22.3984 44.731 22.4277 44.9866H23.043C23.0039 44.5976 22.8647 44.2965 22.6255 44.0833C22.3862 43.87 22.0705 43.7634 21.6782 43.7634C21.3869 43.7634 21.1297 43.8326 20.9067 43.9709C20.6854 44.1093 20.5153 44.3062 20.3965 44.5618C20.2777 44.8173 20.2183 45.1127 20.2183 45.448V45.78C20.2231 46.1072 20.2842 46.3945 20.4014 46.6418C20.5186 46.8892 20.6846 47.0805 20.8994 47.2156C21.1159 47.349 21.3657 47.4158 21.6489 47.4158C22.0542 47.4158 22.3789 47.31 22.623 47.0984ZM26.2534 46.6003C26.3739 46.3367 26.4341 46.0307 26.4341 45.6824V45.4846C26.4325 45.1379 26.3706 44.8344 26.2485 44.574C26.1265 44.3119 25.9531 44.1117 25.7285 43.9734C25.5055 43.8334 25.2492 43.7634 24.9595 43.7634C24.6698 43.7634 24.4126 43.8342 24.188 43.9758C23.965 44.1158 23.7917 44.3184 23.668 44.5837C23.5459 44.849 23.4849 45.155 23.4849 45.5017V45.7019C23.4865 46.0421 23.5483 46.3424 23.6704 46.6028C23.7941 46.8632 23.9683 47.0642 24.1929 47.2058C24.4191 47.3458 24.6763 47.4158 24.9644 47.4158C25.2557 47.4158 25.5129 47.3458 25.7358 47.2058C25.9604 47.0642 26.133 46.8624 26.2534 46.6003ZM25.5918 44.5911C25.7415 44.801 25.8164 45.1029 25.8164 45.4968V45.6824C25.8164 46.0828 25.7423 46.3871 25.5942 46.5955C25.4478 46.8038 25.2378 46.908 24.9644 46.908C24.6942 46.908 24.4826 46.8013 24.3296 46.5881C24.1782 46.3749 24.1025 46.073 24.1025 45.6824V45.4773C24.1058 45.0948 24.1823 44.7994 24.332 44.5911C24.4834 44.3811 24.6925 44.2761 24.9595 44.2761C25.2329 44.2761 25.4437 44.3811 25.5918 44.5911Z" fill="#AFB1B8" style="fill: var(--color1, #AFB1B8)" ></path>
  </symbol>
  <symbol fill="none" xmlns="http://www.w3.org/2000/svg" viewBox="0 0 11 11" id="icon-x">
    <path d="M11 1.10786L9.89214 0L5.5 4.39214L1.10786 0L0 1.10786L4.39214 5.5L0 9.89214L1.10786 11L5.5 6.60786L9.89214 11L11 9.89214L6.60786 5.5L11 1.10786Z" fill="black"></path>
  </symbol>
  <symbol fill="none" xmlns="http://www.w3.org/2000/svg" viewBox="0 0 20 18" id="icon-twitter">
    <path d="M20 2.79875C19.2563 3.125 18.4637 3.34125 17.6375 3.44625C18.4875 2.93875 19.1363 2.14125 19.4412 1.18C18.6488 1.6525 17.7738 1.98625 16.8412 2.1725C16.0887 1.37125 15.0162 0.875 13.8462 0.875C11.5763 0.875 9.74875 2.7175 9.74875 4.97625C9.74875 5.30125 9.77625 5.61375 9.84375 5.91125C6.435 5.745 3.41875 4.11125 1.3925 1.6225C1.03875 2.23625 0.83125 2.93875 0.83125 3.695C0.83125 5.115 1.5625 6.37375 2.6525 7.1025C1.99375 7.09 1.3475 6.89875 0.8 6.5975C0.8 6.61 0.8 6.62625 0.8 6.6425C0.8 8.635 2.22125 10.29 4.085 10.6712C3.75125 10.7625 3.3875 10.8062 3.01 10.8062C2.7475 10.8062 2.4825 10.7913 2.23375 10.7362C2.765 12.36 4.2725 13.5538 6.065 13.5925C4.67 14.6838 2.89875 15.3412 0.98125 15.3412C0.645 15.3412 0.3225 15.3263 0 15.285C1.81625 16.4563 3.96875 17.125 6.29 17.125C13.835 17.125 17.96 10.875 17.96 5.4575C17.96 5.27625 17.9538 5.10125 17.945 4.9275C18.7588 4.35 19.4425 3.62875 20 2.79875Z"  fill="#AFB1B8" style="fill: var(--color1, #AFB1B8)"></path>
  </symbol>
  <symbol fill="none" xmlns="http://www.w3.org/2000/svg" viewBox="0 0 13 10" id="check">
    <path d="M1.95703 4.75166L1.88825 4.68604L1.81923 4.75141L0.93123 5.59258L0.854858 5.66492L0.930974 5.73753L4.42671 9.07236L4.49574 9.1382L4.56476 9.07236L12.069 1.91352L12.1449 1.84116L12.069 1.76881L11.1873 0.927644L11.1183 0.861826L11.0493 0.927611L4.49577 7.17353L1.95703 4.75166Z" fill="white" stroke="white" stroke-width="0.2"></path>
  </symbol>
  <symbol fill="none" xmlns="http://www.w3.org/2000/svg" viewBox="0 0 24 24" id="icon-send">
    <path d="M24 0L0 13.5L7.66994 16.3407L19.5 5.25002L10.5017 17.3896L10.509 17.3923L10.5 17.3896V24.0001L14.8013 18.982L20.2501 21.0001L24 0Z" fill="white"></path>
  </symbol>
  <symbol  xmlns="http://www.w3.org/2000/svg" viewBox="0 0 16 12" id="mail">
    <path d="M14 0H2C1.175 0 0.5075 0.675 0.5075 1.5L0.5 10.5C0.5 11.325 1.175 12 2 12H14C14.825 12 15.5 11.325 15.5 10.5V1.5C15.5 0.675 14.825 0 14 0ZM13.7 3.1875L8.3975 6.5025C8.1575 6.6525 7.8425 6.6525 7.6025 6.5025L2.3 3.1875C2.1125 3.0675 2 2.865 2 2.6475C2 2.145 2.5475 1.845 2.975 2.1075L8 5.25L13.025 2.1075C13.4525 1.845 14 2.145 14 2.6475C14 2.865 13.8875 3.0675 13.7 3.1875Z" ></path>
  </symbol>
  <symbol  xmlns="http://www.w3.org/2000/svg" viewBox="0 0 12 12" id="name">
    <path d="M6 6C7.6575 6 9 4.6575 9 3C9 1.3425 7.6575 0 6 0C4.3425 0 3 1.3425 3 3C3 4.6575 4.3425 6 6 6ZM6 7.5C3.9975 7.5 0 8.505 0 10.5V11.25C0 11.6625 0.3375 12 0.75 12H11.25C11.6625 12 12 11.6625 12 11.25V10.5C12 8.505 8.0025 7.5 6 7.5Z"  ></path>
  </symbol>
  <symbol  xmlns="http://www.w3.org/2000/svg" viewBox="0 0 14 14" id="phone-number">
    <path d="M11.996 9.12256L10.1579 8.91269C9.71641 8.86203 9.2822 9.01401 8.97102 9.32519L7.63945 10.6568C5.59144 9.61466 3.91251 7.94296 2.87041 5.8877L4.20922 4.54888C4.5204 4.2377 4.67237 3.80349 4.62171 3.36205L4.41185 1.53836C4.325 0.807445 3.70988 0.257446 2.97173 0.257446H1.71976C0.902004 0.257446 0.221746 0.937708 0.272403 1.75547C0.655953 7.93572 5.59868 12.8712 11.7717 13.2548C12.5894 13.3054 13.2697 12.6252 13.2697 11.8074V10.5555C13.2769 9.82453 12.7269 9.2094 11.996 9.12256Z"  ></path>
  </symbol>
</svg>

  
